<mxfile host="65bd71144e">
    <diagram id="aEPa8-I6XCywtqZN-Zj2" name="5-2">
        <mxGraphModel dx="3565" dy="1248" grid="1" gridSize="10" guides="1" tooltips="1" connect="1" arrows="1" fold="1" page="1" pageScale="1" pageWidth="1100" pageHeight="850" math="0" shadow="0">
            <root>
                <mxCell id="0"/>
                <mxCell id="1" parent="0"/>
                <mxCell id="Y7LhTmHMka8ZlY3bkCZf-16" value="" style="rounded=1;whiteSpace=wrap;html=1;dashed=1;" parent="1" vertex="1">
                    <mxGeometry x="-680" y="310" width="1550" height="880" as="geometry"/>
                </mxCell>
                <mxCell id="Kzh3CCmP2fzPOZl9w9qh-66" value="" style="group" parent="1" vertex="1" connectable="0">
                    <mxGeometry x="-75.25" y="390" width="280" height="60" as="geometry"/>
                </mxCell>
                <mxCell id="Kzh3CCmP2fzPOZl9w9qh-1" style="edgeStyle=none;html=1;exitX=1;exitY=0.5;exitDx=0;exitDy=0;" parent="Kzh3CCmP2fzPOZl9w9qh-66" source="Kzh3CCmP2fzPOZl9w9qh-3" edge="1">
                    <mxGeometry relative="1" as="geometry">
                        <mxPoint x="210" y="29.830188679245452" as="targetPoint"/>
                    </mxGeometry>
                </mxCell>
                <mxCell id="Kzh3CCmP2fzPOZl9w9qh-2" style="edgeStyle=none;html=1;exitX=0;exitY=0.5;exitDx=0;exitDy=0;entryX=0;entryY=0.5;entryDx=0;entryDy=0;" parent="Kzh3CCmP2fzPOZl9w9qh-66" target="Kzh3CCmP2fzPOZl9w9qh-3" edge="1">
                    <mxGeometry relative="1" as="geometry">
                        <mxPoint x="30" y="29.830188679245452" as="sourcePoint"/>
                    </mxGeometry>
                </mxCell>
                <mxCell id="Kzh3CCmP2fzPOZl9w9qh-3" value="clock_divider" style="rounded=0;whiteSpace=wrap;html=1;" parent="Kzh3CCmP2fzPOZl9w9qh-66" vertex="1">
                    <mxGeometry x="70" width="100" height="60" as="geometry"/>
                </mxCell>
                <mxCell id="Kzh3CCmP2fzPOZl9w9qh-6" value="clk_25MHz" style="text;html=1;strokeColor=none;fillColor=none;align=center;verticalAlign=middle;whiteSpace=wrap;rounded=0;" parent="Kzh3CCmP2fzPOZl9w9qh-66" vertex="1">
                    <mxGeometry x="210" y="20" width="70" height="20" as="geometry"/>
                </mxCell>
                <mxCell id="Kzh3CCmP2fzPOZl9w9qh-7" value="clk" style="text;html=1;strokeColor=none;fillColor=none;align=center;verticalAlign=middle;whiteSpace=wrap;rounded=0;" parent="Kzh3CCmP2fzPOZl9w9qh-66" vertex="1">
                    <mxGeometry y="20" width="30" height="20" as="geometry"/>
                </mxCell>
                <mxCell id="Kzh3CCmP2fzPOZl9w9qh-67" value="" style="group" parent="1" vertex="1" connectable="0">
                    <mxGeometry x="-75.25" y="478" width="250" height="60" as="geometry"/>
                </mxCell>
                <mxCell id="Kzh3CCmP2fzPOZl9w9qh-30" style="edgeStyle=none;html=1;exitX=1;exitY=0.5;exitDx=0;exitDy=0;" parent="Kzh3CCmP2fzPOZl9w9qh-67" source="Kzh3CCmP2fzPOZl9w9qh-32" edge="1">
                    <mxGeometry relative="1" as="geometry">
                        <mxPoint x="210" y="30.018867924528422" as="targetPoint"/>
                    </mxGeometry>
                </mxCell>
                <mxCell id="Kzh3CCmP2fzPOZl9w9qh-31" style="edgeStyle=none;html=1;exitX=0;exitY=0.5;exitDx=0;exitDy=0;entryX=0;entryY=0.5;entryDx=0;entryDy=0;" parent="Kzh3CCmP2fzPOZl9w9qh-67" target="Kzh3CCmP2fzPOZl9w9qh-32" edge="1">
                    <mxGeometry relative="1" as="geometry">
                        <mxPoint x="30" y="30.018867924528422" as="sourcePoint"/>
                    </mxGeometry>
                </mxCell>
                <mxCell id="Kzh3CCmP2fzPOZl9w9qh-32" value="clock_divider" style="rounded=0;whiteSpace=wrap;html=1;" parent="Kzh3CCmP2fzPOZl9w9qh-67" vertex="1">
                    <mxGeometry x="70" width="100" height="60" as="geometry"/>
                </mxCell>
                <mxCell id="Kzh3CCmP2fzPOZl9w9qh-33" value="clk22" style="text;html=1;strokeColor=none;fillColor=none;align=center;verticalAlign=middle;whiteSpace=wrap;rounded=0;" parent="Kzh3CCmP2fzPOZl9w9qh-67" vertex="1">
                    <mxGeometry x="210" y="20" width="40" height="20" as="geometry"/>
                </mxCell>
                <mxCell id="Kzh3CCmP2fzPOZl9w9qh-34" value="clk" style="text;html=1;strokeColor=none;fillColor=none;align=center;verticalAlign=middle;whiteSpace=wrap;rounded=0;" parent="Kzh3CCmP2fzPOZl9w9qh-67" vertex="1">
                    <mxGeometry y="20" width="30" height="20" as="geometry"/>
                </mxCell>
                <mxCell id="Kzh3CCmP2fzPOZl9w9qh-68" value="" style="group" parent="1" vertex="1" connectable="0">
                    <mxGeometry x="256" y="398" width="330" height="90" as="geometry"/>
                </mxCell>
                <mxCell id="Kzh3CCmP2fzPOZl9w9qh-8" style="edgeStyle=none;html=1;exitX=1;exitY=0.5;exitDx=0;exitDy=0;" parent="Kzh3CCmP2fzPOZl9w9qh-68" source="Kzh3CCmP2fzPOZl9w9qh-9" edge="1">
                    <mxGeometry relative="1" as="geometry">
                        <mxPoint x="290" y="44.84615384615381" as="targetPoint"/>
                    </mxGeometry>
                </mxCell>
                <mxCell id="Kzh3CCmP2fzPOZl9w9qh-9" value="blk_mem_gen_0" style="rounded=0;whiteSpace=wrap;html=1;" parent="Kzh3CCmP2fzPOZl9w9qh-68" vertex="1">
                    <mxGeometry x="120" width="120" height="90" as="geometry"/>
                </mxCell>
                <mxCell id="Kzh3CCmP2fzPOZl9w9qh-25" style="edgeStyle=none;html=1;exitX=0;exitY=0.25;exitDx=0;exitDy=0;entryX=0;entryY=0.25;entryDx=0;entryDy=0;" parent="Kzh3CCmP2fzPOZl9w9qh-68" edge="1">
                    <mxGeometry relative="1" as="geometry">
                        <mxPoint x="120" y="22.5" as="targetPoint"/>
                        <mxPoint x="70" y="22.660377358490564" as="sourcePoint"/>
                    </mxGeometry>
                </mxCell>
                <mxCell id="Kzh3CCmP2fzPOZl9w9qh-26" style="edgeStyle=none;html=1;exitX=0;exitY=0.75;exitDx=0;exitDy=0;entryX=0;entryY=0.75;entryDx=0;entryDy=0;" parent="Kzh3CCmP2fzPOZl9w9qh-68" edge="1">
                    <mxGeometry relative="1" as="geometry">
                        <mxPoint x="120" y="67.5" as="targetPoint"/>
                        <mxPoint x="70" y="67.56603773584902" as="sourcePoint"/>
                    </mxGeometry>
                </mxCell>
                <mxCell id="Kzh3CCmP2fzPOZl9w9qh-27" value="clk_25MHz" style="text;html=1;strokeColor=none;fillColor=none;align=center;verticalAlign=middle;whiteSpace=wrap;rounded=0;" parent="Kzh3CCmP2fzPOZl9w9qh-68" vertex="1">
                    <mxGeometry y="12" width="70" height="20" as="geometry"/>
                </mxCell>
                <mxCell id="Kzh3CCmP2fzPOZl9w9qh-28" value="pixel_addr" style="text;html=1;strokeColor=none;fillColor=none;align=center;verticalAlign=middle;whiteSpace=wrap;rounded=0;" parent="Kzh3CCmP2fzPOZl9w9qh-68" vertex="1">
                    <mxGeometry y="58" width="70" height="20" as="geometry"/>
                </mxCell>
                <mxCell id="Kzh3CCmP2fzPOZl9w9qh-29" value="pixel" style="text;html=1;strokeColor=none;fillColor=none;align=center;verticalAlign=middle;whiteSpace=wrap;rounded=0;" parent="Kzh3CCmP2fzPOZl9w9qh-68" vertex="1">
                    <mxGeometry x="290" y="35" width="40" height="20" as="geometry"/>
                </mxCell>
                <mxCell id="Kzh3CCmP2fzPOZl9w9qh-70" value="" style="group" parent="1" vertex="1" connectable="0">
                    <mxGeometry x="-644" y="423" width="378" height="90" as="geometry"/>
                </mxCell>
                <mxCell id="Kzh3CCmP2fzPOZl9w9qh-36" style="edgeStyle=none;rounded=0;html=1;exitX=1;exitY=0.5;exitDx=0;exitDy=0;" parent="Kzh3CCmP2fzPOZl9w9qh-70" source="Kzh3CCmP2fzPOZl9w9qh-35" edge="1">
                    <mxGeometry relative="1" as="geometry">
                        <mxPoint x="302" y="45.125" as="targetPoint"/>
                    </mxGeometry>
                </mxCell>
                <mxCell id="Kzh3CCmP2fzPOZl9w9qh-37" style="edgeStyle=none;rounded=0;html=1;exitX=1;exitY=0.25;exitDx=0;exitDy=0;" parent="Kzh3CCmP2fzPOZl9w9qh-70" source="Kzh3CCmP2fzPOZl9w9qh-35" edge="1">
                    <mxGeometry relative="1" as="geometry">
                        <mxPoint x="302" y="22.625" as="targetPoint"/>
                    </mxGeometry>
                </mxCell>
                <mxCell id="Kzh3CCmP2fzPOZl9w9qh-38" style="edgeStyle=none;rounded=0;html=1;exitX=1;exitY=0.75;exitDx=0;exitDy=0;" parent="Kzh3CCmP2fzPOZl9w9qh-70" source="Kzh3CCmP2fzPOZl9w9qh-35" edge="1">
                    <mxGeometry relative="1" as="geometry">
                        <mxPoint x="302" y="67.625" as="targetPoint"/>
                    </mxGeometry>
                </mxCell>
                <mxCell id="Kzh3CCmP2fzPOZl9w9qh-42" style="edgeStyle=none;rounded=0;html=1;exitX=0;exitY=0.5;exitDx=0;exitDy=0;entryX=0;entryY=0.5;entryDx=0;entryDy=0;" parent="Kzh3CCmP2fzPOZl9w9qh-70" edge="1">
                    <mxGeometry relative="1" as="geometry">
                        <mxPoint x="122" y="34" as="targetPoint"/>
                        <mxPoint x="72" y="34" as="sourcePoint"/>
                    </mxGeometry>
                </mxCell>
                <mxCell id="Kzh3CCmP2fzPOZl9w9qh-43" style="edgeStyle=none;rounded=0;html=1;exitX=0;exitY=0.25;exitDx=0;exitDy=0;entryX=0;entryY=0.25;entryDx=0;entryDy=0;" parent="Kzh3CCmP2fzPOZl9w9qh-70" edge="1">
                    <mxGeometry relative="1" as="geometry">
                        <mxPoint x="122" y="11.5" as="targetPoint"/>
                        <mxPoint x="72" y="11.61403508771923" as="sourcePoint"/>
                    </mxGeometry>
                </mxCell>
                <mxCell id="Kzh3CCmP2fzPOZl9w9qh-44" style="edgeStyle=none;rounded=0;html=1;entryX=0;entryY=0.75;entryDx=0;entryDy=0;" parent="Kzh3CCmP2fzPOZl9w9qh-70" edge="1">
                    <mxGeometry relative="1" as="geometry">
                        <mxPoint x="122" y="56.5" as="targetPoint"/>
                        <mxPoint x="-86" y="57" as="sourcePoint"/>
                    </mxGeometry>
                </mxCell>
                <mxCell id="Kzh3CCmP2fzPOZl9w9qh-35" value="KeyboardDecoder" style="rounded=0;whiteSpace=wrap;html=1;" parent="Kzh3CCmP2fzPOZl9w9qh-70" vertex="1">
                    <mxGeometry x="122" width="120" height="90" as="geometry"/>
                </mxCell>
                <mxCell id="Kzh3CCmP2fzPOZl9w9qh-39" value="key_down" style="text;html=1;strokeColor=none;fillColor=none;align=center;verticalAlign=middle;whiteSpace=wrap;rounded=0;" parent="Kzh3CCmP2fzPOZl9w9qh-70" vertex="1">
                    <mxGeometry x="300" y="12" width="68" height="20" as="geometry"/>
                </mxCell>
                <mxCell id="Kzh3CCmP2fzPOZl9w9qh-40" value="key_valid" style="text;html=1;strokeColor=none;fillColor=none;align=center;verticalAlign=middle;whiteSpace=wrap;rounded=0;" parent="Kzh3CCmP2fzPOZl9w9qh-70" vertex="1">
                    <mxGeometry x="298" y="35" width="68" height="20" as="geometry"/>
                </mxCell>
                <mxCell id="Kzh3CCmP2fzPOZl9w9qh-41" value="last_change" style="text;html=1;strokeColor=none;fillColor=none;align=center;verticalAlign=middle;whiteSpace=wrap;rounded=0;" parent="Kzh3CCmP2fzPOZl9w9qh-70" vertex="1">
                    <mxGeometry x="300" y="59" width="78" height="20" as="geometry"/>
                </mxCell>
                <mxCell id="Kzh3CCmP2fzPOZl9w9qh-45" style="edgeStyle=none;rounded=0;html=1;entryX=0;entryY=0.75;entryDx=0;entryDy=0;" parent="Kzh3CCmP2fzPOZl9w9qh-70" edge="1">
                    <mxGeometry relative="1" as="geometry">
                        <mxPoint x="122" y="79" as="targetPoint"/>
                        <mxPoint x="-86" y="79" as="sourcePoint"/>
                    </mxGeometry>
                </mxCell>
                <mxCell id="Kzh3CCmP2fzPOZl9w9qh-46" value="rst" style="text;html=1;strokeColor=none;fillColor=none;align=center;verticalAlign=middle;whiteSpace=wrap;rounded=0;" parent="Kzh3CCmP2fzPOZl9w9qh-70" vertex="1">
                    <mxGeometry x="42" y="24" width="30" height="20" as="geometry"/>
                </mxCell>
                <mxCell id="Kzh3CCmP2fzPOZl9w9qh-63" value="clk" style="text;html=1;strokeColor=none;fillColor=none;align=center;verticalAlign=middle;whiteSpace=wrap;rounded=0;" parent="Kzh3CCmP2fzPOZl9w9qh-70" vertex="1">
                    <mxGeometry x="42" y="4" width="30" height="20" as="geometry"/>
                </mxCell>
                <mxCell id="Kzh3CCmP2fzPOZl9w9qh-64" value="PS2_DATA" style="text;html=1;strokeColor=none;fillColor=none;align=center;verticalAlign=middle;whiteSpace=wrap;rounded=0;" parent="Kzh3CCmP2fzPOZl9w9qh-70" vertex="1">
                    <mxGeometry x="-157" y="47" width="70" height="20" as="geometry"/>
                </mxCell>
                <mxCell id="Kzh3CCmP2fzPOZl9w9qh-65" value="PS2_CLK" style="text;html=1;strokeColor=none;fillColor=none;align=center;verticalAlign=middle;whiteSpace=wrap;rounded=0;" parent="Kzh3CCmP2fzPOZl9w9qh-70" vertex="1">
                    <mxGeometry x="-148" y="70" width="60" height="20" as="geometry"/>
                </mxCell>
                <mxCell id="Kzh3CCmP2fzPOZl9w9qh-72" value="" style="group" parent="1" vertex="1" connectable="0">
                    <mxGeometry x="-474" y="963" width="587" height="80" as="geometry"/>
                </mxCell>
                <mxCell id="Kzh3CCmP2fzPOZl9w9qh-71" value="" style="rounded=1;whiteSpace=wrap;html=1;dashed=1;" parent="Kzh3CCmP2fzPOZl9w9qh-72" vertex="1">
                    <mxGeometry x="53" width="450" height="80" as="geometry"/>
                </mxCell>
                <mxCell id="Kzh3CCmP2fzPOZl9w9qh-49" style="edgeStyle=none;rounded=0;html=1;exitX=0;exitY=0.25;exitDx=0;exitDy=0;entryX=0;entryY=0.25;entryDx=0;entryDy=0;" parent="Kzh3CCmP2fzPOZl9w9qh-72" target="Kzh3CCmP2fzPOZl9w9qh-47" edge="1">
                    <mxGeometry relative="1" as="geometry">
                        <mxPoint x="34" y="25.14285714285711" as="sourcePoint"/>
                    </mxGeometry>
                </mxCell>
                <mxCell id="Kzh3CCmP2fzPOZl9w9qh-50" style="edgeStyle=none;rounded=0;html=1;entryX=0;entryY=0.75;entryDx=0;entryDy=0;" parent="Kzh3CCmP2fzPOZl9w9qh-72" target="Kzh3CCmP2fzPOZl9w9qh-47" edge="1">
                    <mxGeometry relative="1" as="geometry">
                        <mxPoint x="-256" y="55" as="sourcePoint"/>
                    </mxGeometry>
                </mxCell>
                <mxCell id="Kzh3CCmP2fzPOZl9w9qh-59" style="edgeStyle=none;rounded=0;html=1;exitX=1;exitY=0.5;exitDx=0;exitDy=0;" parent="Kzh3CCmP2fzPOZl9w9qh-72" source="Kzh3CCmP2fzPOZl9w9qh-47" edge="1">
                    <mxGeometry relative="1" as="geometry">
                        <mxPoint x="214" y="40" as="targetPoint"/>
                    </mxGeometry>
                </mxCell>
                <mxCell id="Kzh3CCmP2fzPOZl9w9qh-47" value="debounce" style="rounded=0;whiteSpace=wrap;html=1;" parent="Kzh3CCmP2fzPOZl9w9qh-72" vertex="1">
                    <mxGeometry x="74" y="10" width="100" height="60" as="geometry"/>
                </mxCell>
                <mxCell id="Kzh3CCmP2fzPOZl9w9qh-61" style="edgeStyle=none;rounded=0;html=1;exitX=1;exitY=0.5;exitDx=0;exitDy=0;" parent="Kzh3CCmP2fzPOZl9w9qh-72" source="Kzh3CCmP2fzPOZl9w9qh-48" edge="1">
                    <mxGeometry relative="1" as="geometry">
                        <mxPoint x="531" y="40.14285714285711" as="targetPoint"/>
                    </mxGeometry>
                </mxCell>
                <mxCell id="Kzh3CCmP2fzPOZl9w9qh-48" value="one_pulse" style="rounded=0;whiteSpace=wrap;html=1;" parent="Kzh3CCmP2fzPOZl9w9qh-72" vertex="1">
                    <mxGeometry x="391" y="10" width="100" height="60" as="geometry"/>
                </mxCell>
                <mxCell id="Kzh3CCmP2fzPOZl9w9qh-51" value="clk" style="text;html=1;strokeColor=none;fillColor=none;align=center;verticalAlign=middle;whiteSpace=wrap;rounded=0;" parent="Kzh3CCmP2fzPOZl9w9qh-72" vertex="1">
                    <mxGeometry x="5" y="15" width="30" height="20" as="geometry"/>
                </mxCell>
                <mxCell id="Kzh3CCmP2fzPOZl9w9qh-54" style="edgeStyle=none;rounded=0;html=1;exitX=0;exitY=0.25;exitDx=0;exitDy=0;entryX=0;entryY=0.25;entryDx=0;entryDy=0;" parent="Kzh3CCmP2fzPOZl9w9qh-72" edge="1">
                    <mxGeometry relative="1" as="geometry">
                        <mxPoint x="391" y="24.789999999999964" as="targetPoint"/>
                        <mxPoint x="351" y="24.932857142857074" as="sourcePoint"/>
                    </mxGeometry>
                </mxCell>
                <mxCell id="Kzh3CCmP2fzPOZl9w9qh-55" style="edgeStyle=none;rounded=0;html=1;exitX=0;exitY=0.75;exitDx=0;exitDy=0;entryX=0;entryY=0.75;entryDx=0;entryDy=0;" parent="Kzh3CCmP2fzPOZl9w9qh-72" edge="1">
                    <mxGeometry relative="1" as="geometry">
                        <mxPoint x="391" y="54.789999999999964" as="targetPoint"/>
                        <mxPoint x="351" y="54.64714285714285" as="sourcePoint"/>
                    </mxGeometry>
                </mxCell>
                <mxCell id="Kzh3CCmP2fzPOZl9w9qh-56" value="clk" style="text;html=1;strokeColor=none;fillColor=none;align=center;verticalAlign=middle;whiteSpace=wrap;rounded=0;" parent="Kzh3CCmP2fzPOZl9w9qh-72" vertex="1">
                    <mxGeometry x="321" y="15" width="30" height="20" as="geometry"/>
                </mxCell>
                <mxCell id="Kzh3CCmP2fzPOZl9w9qh-57" value="start" style="text;html=1;strokeColor=none;fillColor=none;align=center;verticalAlign=middle;whiteSpace=wrap;rounded=0;" parent="Kzh3CCmP2fzPOZl9w9qh-72" vertex="1">
                    <mxGeometry x="-288" y="45" width="30" height="20" as="geometry"/>
                </mxCell>
                <mxCell id="Kzh3CCmP2fzPOZl9w9qh-58" value="db_start" style="text;html=1;strokeColor=none;fillColor=none;align=center;verticalAlign=middle;whiteSpace=wrap;rounded=0;" parent="Kzh3CCmP2fzPOZl9w9qh-72" vertex="1">
                    <mxGeometry x="293" y="45" width="56" height="20" as="geometry"/>
                </mxCell>
                <mxCell id="Kzh3CCmP2fzPOZl9w9qh-60" value="db_start" style="text;html=1;strokeColor=none;fillColor=none;align=center;verticalAlign=middle;whiteSpace=wrap;rounded=0;" parent="Kzh3CCmP2fzPOZl9w9qh-72" vertex="1">
                    <mxGeometry x="214" y="30" width="56" height="20" as="geometry"/>
                </mxCell>
                <mxCell id="Kzh3CCmP2fzPOZl9w9qh-62" value="op_start" style="text;html=1;strokeColor=none;fillColor=none;align=center;verticalAlign=middle;whiteSpace=wrap;rounded=0;" parent="Kzh3CCmP2fzPOZl9w9qh-72" vertex="1">
                    <mxGeometry x="531" y="30" width="56" height="20" as="geometry"/>
                </mxCell>
                <mxCell id="Kzh3CCmP2fzPOZl9w9qh-106" value="" style="group" parent="1" vertex="1" connectable="0">
                    <mxGeometry x="126" y="923" width="429" height="220" as="geometry"/>
                </mxCell>
                <mxCell id="Kzh3CCmP2fzPOZl9w9qh-100" style="edgeStyle=orthogonalEdgeStyle;curved=1;rounded=0;html=1;exitX=1;exitY=0.5;exitDx=0;exitDy=0;" parent="Kzh3CCmP2fzPOZl9w9qh-106" source="Kzh3CCmP2fzPOZl9w9qh-98" edge="1">
                    <mxGeometry relative="1" as="geometry">
                        <mxPoint x="389" y="120" as="targetPoint"/>
                    </mxGeometry>
                </mxCell>
                <mxCell id="Kzh3CCmP2fzPOZl9w9qh-102" style="edgeStyle=orthogonalEdgeStyle;curved=1;rounded=0;html=1;exitX=0;exitY=0.25;exitDx=0;exitDy=0;entryX=0;entryY=0.25;entryDx=0;entryDy=0;" parent="Kzh3CCmP2fzPOZl9w9qh-106" target="Kzh3CCmP2fzPOZl9w9qh-98" edge="1">
                    <mxGeometry relative="1" as="geometry">
                        <mxPoint x="30" y="69.91666666666674" as="sourcePoint"/>
                    </mxGeometry>
                </mxCell>
                <mxCell id="Kzh3CCmP2fzPOZl9w9qh-103" style="edgeStyle=orthogonalEdgeStyle;curved=1;rounded=0;html=1;exitX=0;exitY=0.75;exitDx=0;exitDy=0;entryX=0;entryY=0.75;entryDx=0;entryDy=0;" parent="Kzh3CCmP2fzPOZl9w9qh-106" target="Kzh3CCmP2fzPOZl9w9qh-98" edge="1">
                    <mxGeometry relative="1" as="geometry">
                        <mxPoint x="30" y="170.08771929824547" as="sourcePoint"/>
                    </mxGeometry>
                </mxCell>
                <mxCell id="Kzh3CCmP2fzPOZl9w9qh-98" value="" style="rounded=1;whiteSpace=wrap;html=1;dashed=1;" parent="Kzh3CCmP2fzPOZl9w9qh-106" vertex="1">
                    <mxGeometry x="80" y="20" width="269" height="200" as="geometry"/>
                </mxCell>
                <mxCell id="Kzh3CCmP2fzPOZl9w9qh-87" style="edgeStyle=orthogonalEdgeStyle;rounded=0;html=1;exitX=0.25;exitY=0;exitDx=0;exitDy=0;curved=1;entryX=0;entryY=0.333;entryDx=0;entryDy=0;entryPerimeter=0;" parent="Kzh3CCmP2fzPOZl9w9qh-106" source="Kzh3CCmP2fzPOZl9w9qh-73" target="Kzh3CCmP2fzPOZl9w9qh-73" edge="1">
                    <mxGeometry relative="1" as="geometry">
                        <mxPoint x="105" y="63" as="targetPoint"/>
                        <Array as="points">
                            <mxPoint x="128" y="43"/>
                            <mxPoint x="95" y="43"/>
                            <mxPoint x="95" y="63"/>
                        </Array>
                    </mxGeometry>
                </mxCell>
                <mxCell id="Kzh3CCmP2fzPOZl9w9qh-73" value="INIT" style="rounded=1;whiteSpace=wrap;html=1;" parent="Kzh3CCmP2fzPOZl9w9qh-106" vertex="1">
                    <mxGeometry x="115" y="53" width="50" height="30" as="geometry"/>
                </mxCell>
                <mxCell id="Kzh3CCmP2fzPOZl9w9qh-88" style="edgeStyle=orthogonalEdgeStyle;curved=1;rounded=0;html=1;exitX=0;exitY=0.75;exitDx=0;exitDy=0;entryX=0.181;entryY=1.023;entryDx=0;entryDy=0;entryPerimeter=0;" parent="Kzh3CCmP2fzPOZl9w9qh-106" source="Kzh3CCmP2fzPOZl9w9qh-74" target="Kzh3CCmP2fzPOZl9w9qh-74" edge="1">
                    <mxGeometry relative="1" as="geometry">
                        <mxPoint x="135" y="193" as="targetPoint"/>
                        <Array as="points">
                            <mxPoint x="95" y="175"/>
                            <mxPoint x="95" y="197"/>
                            <mxPoint x="124" y="197"/>
                        </Array>
                    </mxGeometry>
                </mxCell>
                <mxCell id="Kzh3CCmP2fzPOZl9w9qh-74" value="SHOW" style="rounded=1;whiteSpace=wrap;html=1;" parent="Kzh3CCmP2fzPOZl9w9qh-106" vertex="1">
                    <mxGeometry x="115" y="153" width="50" height="30" as="geometry"/>
                </mxCell>
                <mxCell id="Kzh3CCmP2fzPOZl9w9qh-78" value="" style="edgeStyle=none;rounded=0;html=1;" parent="Kzh3CCmP2fzPOZl9w9qh-106" source="Kzh3CCmP2fzPOZl9w9qh-73" target="Kzh3CCmP2fzPOZl9w9qh-74" edge="1">
                    <mxGeometry relative="1" as="geometry"/>
                </mxCell>
                <mxCell id="Kzh3CCmP2fzPOZl9w9qh-92" style="edgeStyle=orthogonalEdgeStyle;rounded=0;html=1;exitX=0.75;exitY=1;exitDx=0;exitDy=0;curved=1;entryX=1;entryY=0.8;entryDx=0;entryDy=0;entryPerimeter=0;" parent="Kzh3CCmP2fzPOZl9w9qh-106" source="Kzh3CCmP2fzPOZl9w9qh-76" target="Kzh3CCmP2fzPOZl9w9qh-76" edge="1">
                    <mxGeometry relative="1" as="geometry">
                        <mxPoint x="325" y="177" as="targetPoint"/>
                        <Array as="points">
                            <mxPoint x="303" y="197"/>
                            <mxPoint x="335" y="197"/>
                            <mxPoint x="335" y="177"/>
                        </Array>
                    </mxGeometry>
                </mxCell>
                <mxCell id="Kzh3CCmP2fzPOZl9w9qh-76" value="GAME" style="rounded=1;whiteSpace=wrap;html=1;" parent="Kzh3CCmP2fzPOZl9w9qh-106" vertex="1">
                    <mxGeometry x="265" y="153" width="50" height="30" as="geometry"/>
                </mxCell>
                <mxCell id="Kzh3CCmP2fzPOZl9w9qh-79" value="" style="edgeStyle=none;rounded=0;html=1;" parent="Kzh3CCmP2fzPOZl9w9qh-106" source="Kzh3CCmP2fzPOZl9w9qh-74" target="Kzh3CCmP2fzPOZl9w9qh-76" edge="1">
                    <mxGeometry relative="1" as="geometry"/>
                </mxCell>
                <mxCell id="Kzh3CCmP2fzPOZl9w9qh-81" value="" style="edgeStyle=none;rounded=0;html=1;" parent="Kzh3CCmP2fzPOZl9w9qh-106" source="Kzh3CCmP2fzPOZl9w9qh-77" target="Kzh3CCmP2fzPOZl9w9qh-73" edge="1">
                    <mxGeometry relative="1" as="geometry"/>
                </mxCell>
                <mxCell id="Kzh3CCmP2fzPOZl9w9qh-93" style="edgeStyle=orthogonalEdgeStyle;curved=1;rounded=0;html=1;exitX=1;exitY=0.25;exitDx=0;exitDy=0;entryX=0.602;entryY=-0.016;entryDx=0;entryDy=0;entryPerimeter=0;" parent="Kzh3CCmP2fzPOZl9w9qh-106" source="Kzh3CCmP2fzPOZl9w9qh-77" target="Kzh3CCmP2fzPOZl9w9qh-77" edge="1">
                    <mxGeometry relative="1" as="geometry">
                        <mxPoint x="295" y="37" as="targetPoint"/>
                        <Array as="points">
                            <mxPoint x="329" y="61"/>
                            <mxPoint x="329" y="40"/>
                            <mxPoint x="295" y="40"/>
                        </Array>
                    </mxGeometry>
                </mxCell>
                <mxCell id="Kzh3CCmP2fzPOZl9w9qh-77" value="FINISH" style="rounded=1;whiteSpace=wrap;html=1;" parent="Kzh3CCmP2fzPOZl9w9qh-106" vertex="1">
                    <mxGeometry x="265" y="53" width="50" height="30" as="geometry"/>
                </mxCell>
                <mxCell id="Kzh3CCmP2fzPOZl9w9qh-80" value="" style="edgeStyle=none;rounded=0;html=1;" parent="Kzh3CCmP2fzPOZl9w9qh-106" source="Kzh3CCmP2fzPOZl9w9qh-76" target="Kzh3CCmP2fzPOZl9w9qh-77" edge="1">
                    <mxGeometry relative="1" as="geometry"/>
                </mxCell>
                <mxCell id="Kzh3CCmP2fzPOZl9w9qh-83" value="op_start" style="text;html=1;strokeColor=none;fillColor=none;align=center;verticalAlign=middle;whiteSpace=wrap;rounded=0;" parent="Kzh3CCmP2fzPOZl9w9qh-106" vertex="1">
                    <mxGeometry x="86" y="104" width="56" height="20" as="geometry"/>
                </mxCell>
                <mxCell id="Kzh3CCmP2fzPOZl9w9qh-84" value="op_start" style="text;html=1;strokeColor=none;fillColor=none;align=center;verticalAlign=middle;whiteSpace=wrap;rounded=0;" parent="Kzh3CCmP2fzPOZl9w9qh-106" vertex="1">
                    <mxGeometry x="189" y="170" width="56" height="20" as="geometry"/>
                </mxCell>
                <mxCell id="Kzh3CCmP2fzPOZl9w9qh-85" value="op_start" style="text;html=1;strokeColor=none;fillColor=none;align=center;verticalAlign=middle;whiteSpace=wrap;rounded=0;" parent="Kzh3CCmP2fzPOZl9w9qh-106" vertex="1">
                    <mxGeometry x="189" y="46" width="56" height="20" as="geometry"/>
                </mxCell>
                <mxCell id="Kzh3CCmP2fzPOZl9w9qh-86" value="flipped &lt;br&gt;== &lt;br&gt;16'hFFFF" style="text;html=1;strokeColor=none;fillColor=none;align=center;verticalAlign=middle;whiteSpace=wrap;rounded=0;" parent="Kzh3CCmP2fzPOZl9w9qh-106" vertex="1">
                    <mxGeometry x="290" y="111" width="57" height="20" as="geometry"/>
                </mxCell>
                <mxCell id="Kzh3CCmP2fzPOZl9w9qh-94" value="else" style="text;html=1;strokeColor=none;fillColor=none;align=center;verticalAlign=middle;whiteSpace=wrap;rounded=0;" parent="Kzh3CCmP2fzPOZl9w9qh-106" vertex="1">
                    <mxGeometry x="293" y="23" width="37" height="20" as="geometry"/>
                </mxCell>
                <mxCell id="Kzh3CCmP2fzPOZl9w9qh-95" value="else" style="text;html=1;strokeColor=none;fillColor=none;align=center;verticalAlign=middle;whiteSpace=wrap;rounded=0;" parent="Kzh3CCmP2fzPOZl9w9qh-106" vertex="1">
                    <mxGeometry x="91.5" y="26" width="37" height="20" as="geometry"/>
                </mxCell>
                <mxCell id="Kzh3CCmP2fzPOZl9w9qh-96" value="else" style="text;html=1;strokeColor=none;fillColor=none;align=center;verticalAlign=middle;whiteSpace=wrap;rounded=0;" parent="Kzh3CCmP2fzPOZl9w9qh-106" vertex="1">
                    <mxGeometry x="300" y="196" width="37" height="20" as="geometry"/>
                </mxCell>
                <mxCell id="Kzh3CCmP2fzPOZl9w9qh-97" value="else" style="text;html=1;strokeColor=none;fillColor=none;align=center;verticalAlign=middle;whiteSpace=wrap;rounded=0;" parent="Kzh3CCmP2fzPOZl9w9qh-106" vertex="1">
                    <mxGeometry x="91.5" y="196" width="37" height="20" as="geometry"/>
                </mxCell>
                <mxCell id="Kzh3CCmP2fzPOZl9w9qh-99" value="state FSM" style="text;html=1;strokeColor=none;fillColor=none;align=center;verticalAlign=middle;whiteSpace=wrap;rounded=0;" parent="Kzh3CCmP2fzPOZl9w9qh-106" vertex="1">
                    <mxGeometry x="103" width="70" height="20" as="geometry"/>
                </mxCell>
                <mxCell id="Kzh3CCmP2fzPOZl9w9qh-101" value="state" style="text;html=1;strokeColor=none;fillColor=none;align=center;verticalAlign=middle;whiteSpace=wrap;rounded=0;" parent="Kzh3CCmP2fzPOZl9w9qh-106" vertex="1">
                    <mxGeometry x="389" y="110" width="40" height="20" as="geometry"/>
                </mxCell>
                <mxCell id="Kzh3CCmP2fzPOZl9w9qh-104" value="rst" style="text;html=1;strokeColor=none;fillColor=none;align=center;verticalAlign=middle;whiteSpace=wrap;rounded=0;" parent="Kzh3CCmP2fzPOZl9w9qh-106" vertex="1">
                    <mxGeometry y="160" width="30" height="20" as="geometry"/>
                </mxCell>
                <mxCell id="Kzh3CCmP2fzPOZl9w9qh-105" value="clk" style="text;html=1;strokeColor=none;fillColor=none;align=center;verticalAlign=middle;whiteSpace=wrap;rounded=0;" parent="Kzh3CCmP2fzPOZl9w9qh-106" vertex="1">
                    <mxGeometry y="58" width="30" height="20" as="geometry"/>
                </mxCell>
                <mxCell id="Kzh3CCmP2fzPOZl9w9qh-126" value="" style="group" parent="1" vertex="1" connectable="0">
                    <mxGeometry x="-110" y="804" width="302.5" height="60" as="geometry"/>
                </mxCell>
                <mxCell id="Kzh3CCmP2fzPOZl9w9qh-120" style="edgeStyle=orthogonalEdgeStyle;curved=1;rounded=0;html=1;entryX=0;entryY=0.25;entryDx=0;entryDy=0;" parent="Kzh3CCmP2fzPOZl9w9qh-126" target="Kzh3CCmP2fzPOZl9w9qh-119" edge="1">
                    <mxGeometry relative="1" as="geometry">
                        <mxPoint x="-620" y="16" as="sourcePoint"/>
                    </mxGeometry>
                </mxCell>
                <mxCell id="Kzh3CCmP2fzPOZl9w9qh-121" style="edgeStyle=orthogonalEdgeStyle;curved=1;rounded=0;html=1;exitX=0;exitY=0.75;exitDx=0;exitDy=0;entryX=0;entryY=0.75;entryDx=0;entryDy=0;" parent="Kzh3CCmP2fzPOZl9w9qh-126" target="Kzh3CCmP2fzPOZl9w9qh-119" edge="1">
                    <mxGeometry relative="1" as="geometry">
                        <mxPoint x="40.5" y="44.888888888888914" as="sourcePoint"/>
                    </mxGeometry>
                </mxCell>
                <mxCell id="Kzh3CCmP2fzPOZl9w9qh-122" style="edgeStyle=orthogonalEdgeStyle;curved=1;rounded=0;html=1;exitX=1;exitY=0.5;exitDx=0;exitDy=0;" parent="Kzh3CCmP2fzPOZl9w9qh-126" source="Kzh3CCmP2fzPOZl9w9qh-119" edge="1">
                    <mxGeometry relative="1" as="geometry">
                        <mxPoint x="250.5" y="29.888888888888914" as="targetPoint"/>
                    </mxGeometry>
                </mxCell>
                <mxCell id="Kzh3CCmP2fzPOZl9w9qh-119" value="if is in hint and show correct grid" style="rounded=0;whiteSpace=wrap;html=1;" parent="Kzh3CCmP2fzPOZl9w9qh-126" vertex="1">
                    <mxGeometry x="80.5" width="120" height="60" as="geometry"/>
                </mxCell>
                <mxCell id="Kzh3CCmP2fzPOZl9w9qh-123" value="hintstate" style="text;html=1;strokeColor=none;fillColor=none;align=center;verticalAlign=middle;whiteSpace=wrap;rounded=0;" parent="Kzh3CCmP2fzPOZl9w9qh-126" vertex="1">
                    <mxGeometry x="252.5" y="20" width="50" height="20" as="geometry"/>
                </mxCell>
                <mxCell id="Kzh3CCmP2fzPOZl9w9qh-124" value="state" style="text;html=1;strokeColor=none;fillColor=none;align=center;verticalAlign=middle;whiteSpace=wrap;rounded=0;" parent="Kzh3CCmP2fzPOZl9w9qh-126" vertex="1">
                    <mxGeometry y="36" width="40" height="20" as="geometry"/>
                </mxCell>
                <mxCell id="Kzh3CCmP2fzPOZl9w9qh-125" value="hint" style="text;html=1;strokeColor=none;fillColor=none;align=center;verticalAlign=middle;whiteSpace=wrap;rounded=0;" parent="Kzh3CCmP2fzPOZl9w9qh-126" vertex="1">
                    <mxGeometry x="-655.5" y="5" width="39.5" height="20" as="geometry"/>
                </mxCell>
                <mxCell id="Kzh3CCmP2fzPOZl9w9qh-132" value="" style="group" parent="1" vertex="1" connectable="0">
                    <mxGeometry x="644" y="1013" width="290.5" height="60" as="geometry"/>
                </mxCell>
                <mxCell id="Kzh3CCmP2fzPOZl9w9qh-128" style="edgeStyle=orthogonalEdgeStyle;curved=1;rounded=0;html=1;exitX=0;exitY=0.5;exitDx=0;exitDy=0;entryX=0;entryY=0.5;entryDx=0;entryDy=0;" parent="Kzh3CCmP2fzPOZl9w9qh-132" target="Kzh3CCmP2fzPOZl9w9qh-127" edge="1">
                    <mxGeometry relative="1" as="geometry">
                        <mxPoint x="40.49999999999994" y="29.923076923076906" as="sourcePoint"/>
                    </mxGeometry>
                </mxCell>
                <mxCell id="Kzh3CCmP2fzPOZl9w9qh-130" style="edgeStyle=orthogonalEdgeStyle;curved=1;rounded=0;html=1;exitX=1;exitY=0.5;exitDx=0;exitDy=0;" parent="Kzh3CCmP2fzPOZl9w9qh-132" source="Kzh3CCmP2fzPOZl9w9qh-127" edge="1">
                    <mxGeometry relative="1" as="geometry">
                        <mxPoint x="250.5" y="30" as="targetPoint"/>
                    </mxGeometry>
                </mxCell>
                <mxCell id="Kzh3CCmP2fzPOZl9w9qh-127" value="if pass the game" style="rounded=0;whiteSpace=wrap;html=1;" parent="Kzh3CCmP2fzPOZl9w9qh-132" vertex="1">
                    <mxGeometry x="80.5" width="120" height="60" as="geometry"/>
                </mxCell>
                <mxCell id="Kzh3CCmP2fzPOZl9w9qh-129" value="state" style="text;html=1;strokeColor=none;fillColor=none;align=center;verticalAlign=middle;whiteSpace=wrap;rounded=0;" parent="Kzh3CCmP2fzPOZl9w9qh-132" vertex="1">
                    <mxGeometry y="20" width="40" height="20" as="geometry"/>
                </mxCell>
                <mxCell id="Kzh3CCmP2fzPOZl9w9qh-131" value="pass" style="text;html=1;strokeColor=none;fillColor=none;align=center;verticalAlign=middle;whiteSpace=wrap;rounded=0;" parent="Kzh3CCmP2fzPOZl9w9qh-132" vertex="1">
                    <mxGeometry x="247.5" y="20" width="40" height="20" as="geometry"/>
                </mxCell>
                <mxCell id="Kzh3CCmP2fzPOZl9w9qh-163" value="" style="group" parent="1" vertex="1" connectable="0">
                    <mxGeometry x="-650" y="643" width="859" height="155" as="geometry"/>
                </mxCell>
                <mxCell id="Kzh3CCmP2fzPOZl9w9qh-141" style="edgeStyle=none;rounded=0;html=1;exitX=1;exitY=0.5;exitDx=0;exitDy=0;" parent="Kzh3CCmP2fzPOZl9w9qh-163" source="Kzh3CCmP2fzPOZl9w9qh-140" edge="1">
                    <mxGeometry relative="1" as="geometry">
                        <mxPoint x="389" y="77.375" as="targetPoint"/>
                    </mxGeometry>
                </mxCell>
                <mxCell id="Kzh3CCmP2fzPOZl9w9qh-142" style="edgeStyle=none;rounded=0;html=1;exitX=1;exitY=0.25;exitDx=0;exitDy=0;" parent="Kzh3CCmP2fzPOZl9w9qh-163" edge="1">
                    <mxGeometry relative="1" as="geometry">
                        <mxPoint x="389" y="19.785714285714448" as="targetPoint"/>
                        <mxPoint x="329" y="19.75" as="sourcePoint"/>
                    </mxGeometry>
                </mxCell>
                <mxCell id="Kzh3CCmP2fzPOZl9w9qh-143" style="edgeStyle=none;rounded=0;html=1;exitX=1;exitY=0.75;exitDx=0;exitDy=0;" parent="Kzh3CCmP2fzPOZl9w9qh-163" edge="1">
                    <mxGeometry relative="1" as="geometry">
                        <mxPoint x="389" y="105.28571428571445" as="targetPoint"/>
                        <mxPoint x="329" y="105.25" as="sourcePoint"/>
                    </mxGeometry>
                </mxCell>
                <mxCell id="Kzh3CCmP2fzPOZl9w9qh-157" style="edgeStyle=none;rounded=0;html=1;exitX=0;exitY=0.5;exitDx=0;exitDy=0;entryX=0;entryY=0.5;entryDx=0;entryDy=0;" parent="Kzh3CCmP2fzPOZl9w9qh-163" edge="1">
                    <mxGeometry relative="1" as="geometry">
                        <mxPoint x="129" y="66.5" as="targetPoint"/>
                        <mxPoint x="79" y="66.5254237288134" as="sourcePoint"/>
                    </mxGeometry>
                </mxCell>
                <mxCell id="Kzh3CCmP2fzPOZl9w9qh-158" style="edgeStyle=none;rounded=0;html=1;exitX=0;exitY=0.25;exitDx=0;exitDy=0;entryX=0;entryY=0.25;entryDx=0;entryDy=0;" parent="Kzh3CCmP2fzPOZl9w9qh-163" edge="1">
                    <mxGeometry relative="1" as="geometry">
                        <mxPoint x="129" y="17.75" as="targetPoint"/>
                        <mxPoint x="79" y="18" as="sourcePoint"/>
                    </mxGeometry>
                </mxCell>
                <mxCell id="Kzh3CCmP2fzPOZl9w9qh-159" style="edgeStyle=none;rounded=0;html=1;exitX=0;exitY=0.75;exitDx=0;exitDy=0;entryX=0;entryY=0.75;entryDx=0;entryDy=0;" parent="Kzh3CCmP2fzPOZl9w9qh-163" edge="1">
                    <mxGeometry relative="1" as="geometry">
                        <mxPoint x="129" y="90.11999999999989" as="targetPoint"/>
                        <mxPoint x="79" y="90.30589743589735" as="sourcePoint"/>
                    </mxGeometry>
                </mxCell>
                <mxCell id="Kzh3CCmP2fzPOZl9w9qh-140" value="key input and according implementation&amp;nbsp;" style="rounded=0;whiteSpace=wrap;html=1;" parent="Kzh3CCmP2fzPOZl9w9qh-163" vertex="1">
                    <mxGeometry x="129" width="200" height="155" as="geometry"/>
                </mxCell>
                <mxCell id="Kzh3CCmP2fzPOZl9w9qh-144" style="edgeStyle=none;rounded=0;html=1;exitX=1;exitY=0.25;exitDx=0;exitDy=0;" parent="Kzh3CCmP2fzPOZl9w9qh-163" edge="1">
                    <mxGeometry relative="1" as="geometry">
                        <mxPoint x="389" y="48.78571428571445" as="targetPoint"/>
                        <mxPoint x="329" y="48.75" as="sourcePoint"/>
                    </mxGeometry>
                </mxCell>
                <mxCell id="Kzh3CCmP2fzPOZl9w9qh-145" style="edgeStyle=none;rounded=0;html=1;exitX=1;exitY=0.75;exitDx=0;exitDy=0;" parent="Kzh3CCmP2fzPOZl9w9qh-163" edge="1">
                    <mxGeometry relative="1" as="geometry">
                        <mxPoint x="389" y="133.03571428571445" as="targetPoint"/>
                        <mxPoint x="329" y="133" as="sourcePoint"/>
                    </mxGeometry>
                </mxCell>
                <mxCell id="Kzh3CCmP2fzPOZl9w9qh-146" value="nxt_flipped" style="text;html=1;strokeColor=none;fillColor=none;align=center;verticalAlign=middle;whiteSpace=wrap;rounded=0;" parent="Kzh3CCmP2fzPOZl9w9qh-163" vertex="1">
                    <mxGeometry x="389" y="9" width="70" height="20" as="geometry"/>
                </mxCell>
                <mxCell id="Kzh3CCmP2fzPOZl9w9qh-147" value="nxt_mirrored" style="text;html=1;strokeColor=none;fillColor=none;align=center;verticalAlign=middle;whiteSpace=wrap;rounded=0;" parent="Kzh3CCmP2fzPOZl9w9qh-163" vertex="1">
                    <mxGeometry x="388" y="38" width="80" height="20" as="geometry"/>
                </mxCell>
                <mxCell id="Kzh3CCmP2fzPOZl9w9qh-148" value="nxt_reveal" style="text;html=1;strokeColor=none;fillColor=none;align=center;verticalAlign=middle;whiteSpace=wrap;rounded=0;" parent="Kzh3CCmP2fzPOZl9w9qh-163" vertex="1">
                    <mxGeometry x="387" y="67.5" width="70" height="20" as="geometry"/>
                </mxCell>
                <mxCell id="Kzh3CCmP2fzPOZl9w9qh-149" value="key1" style="text;html=1;strokeColor=none;fillColor=none;align=center;verticalAlign=middle;whiteSpace=wrap;rounded=0;" parent="Kzh3CCmP2fzPOZl9w9qh-163" vertex="1">
                    <mxGeometry x="387" y="95" width="41" height="20" as="geometry"/>
                </mxCell>
                <mxCell id="Kzh3CCmP2fzPOZl9w9qh-150" value="key2" style="text;html=1;strokeColor=none;fillColor=none;align=center;verticalAlign=middle;whiteSpace=wrap;rounded=0;" parent="Kzh3CCmP2fzPOZl9w9qh-163" vertex="1">
                    <mxGeometry x="387" y="124" width="41" height="20" as="geometry"/>
                </mxCell>
                <mxCell id="Kzh3CCmP2fzPOZl9w9qh-151" value="state" style="text;html=1;strokeColor=none;fillColor=none;align=center;verticalAlign=middle;whiteSpace=wrap;rounded=0;" parent="Kzh3CCmP2fzPOZl9w9qh-163" vertex="1">
                    <mxGeometry x="39" y="7" width="40" height="20" as="geometry"/>
                </mxCell>
                <mxCell id="Kzh3CCmP2fzPOZl9w9qh-152" value="key_down" style="text;html=1;strokeColor=none;fillColor=none;align=center;verticalAlign=middle;whiteSpace=wrap;rounded=0;" parent="Kzh3CCmP2fzPOZl9w9qh-163" vertex="1">
                    <mxGeometry x="11" y="32" width="68" height="20" as="geometry"/>
                </mxCell>
                <mxCell id="Kzh3CCmP2fzPOZl9w9qh-153" value="key_valid" style="text;html=1;strokeColor=none;fillColor=none;align=center;verticalAlign=middle;whiteSpace=wrap;rounded=0;" parent="Kzh3CCmP2fzPOZl9w9qh-163" vertex="1">
                    <mxGeometry x="12" y="57" width="68" height="20" as="geometry"/>
                </mxCell>
                <mxCell id="Kzh3CCmP2fzPOZl9w9qh-154" value="last_change" style="text;html=1;strokeColor=none;fillColor=none;align=center;verticalAlign=middle;whiteSpace=wrap;rounded=0;" parent="Kzh3CCmP2fzPOZl9w9qh-163" vertex="1">
                    <mxGeometry y="80" width="78" height="20" as="geometry"/>
                </mxCell>
                <mxCell id="Kzh3CCmP2fzPOZl9w9qh-155" value="curkey" style="text;html=1;strokeColor=none;fillColor=none;align=center;verticalAlign=middle;whiteSpace=wrap;rounded=0;" parent="Kzh3CCmP2fzPOZl9w9qh-163" vertex="1">
                    <mxGeometry x="29" y="104" width="48" height="20" as="geometry"/>
                </mxCell>
                <mxCell id="Kzh3CCmP2fzPOZl9w9qh-156" value="answer" style="text;html=1;strokeColor=none;fillColor=none;align=center;verticalAlign=middle;whiteSpace=wrap;rounded=0;" parent="Kzh3CCmP2fzPOZl9w9qh-163" vertex="1">
                    <mxGeometry x="24" y="127" width="54" height="20" as="geometry"/>
                </mxCell>
                <mxCell id="Kzh3CCmP2fzPOZl9w9qh-160" style="edgeStyle=none;rounded=0;html=1;exitX=0;exitY=0.25;exitDx=0;exitDy=0;entryX=0;entryY=0.25;entryDx=0;entryDy=0;" parent="Kzh3CCmP2fzPOZl9w9qh-163" edge="1">
                    <mxGeometry relative="1" as="geometry">
                        <mxPoint x="129" y="42" as="targetPoint"/>
                        <mxPoint x="79" y="42.25" as="sourcePoint"/>
                    </mxGeometry>
                </mxCell>
                <mxCell id="Kzh3CCmP2fzPOZl9w9qh-161" style="edgeStyle=none;rounded=0;html=1;exitX=0;exitY=0.25;exitDx=0;exitDy=0;entryX=0;entryY=0.25;entryDx=0;entryDy=0;" parent="Kzh3CCmP2fzPOZl9w9qh-163" edge="1">
                    <mxGeometry relative="1" as="geometry">
                        <mxPoint x="129" y="114.1099999999999" as="targetPoint"/>
                        <mxPoint x="79" y="114.3599999999999" as="sourcePoint"/>
                    </mxGeometry>
                </mxCell>
                <mxCell id="Kzh3CCmP2fzPOZl9w9qh-162" style="edgeStyle=none;rounded=0;html=1;exitX=0;exitY=0.25;exitDx=0;exitDy=0;entryX=0;entryY=0.25;entryDx=0;entryDy=0;" parent="Kzh3CCmP2fzPOZl9w9qh-163" edge="1">
                    <mxGeometry relative="1" as="geometry">
                        <mxPoint x="129" y="138.3599999999999" as="targetPoint"/>
                        <mxPoint x="79" y="138.6099999999999" as="sourcePoint"/>
                    </mxGeometry>
                </mxCell>
                <mxCell id="Kzh3CCmP2fzPOZl9w9qh-194" value="" style="group" parent="Kzh3CCmP2fzPOZl9w9qh-163" vertex="1" connectable="0">
                    <mxGeometry x="500" width="350" height="90" as="geometry"/>
                </mxCell>
                <mxCell id="Kzh3CCmP2fzPOZl9w9qh-112" value="mirrored" style="text;html=1;strokeColor=none;fillColor=none;align=center;verticalAlign=middle;whiteSpace=wrap;rounded=0;" parent="Kzh3CCmP2fzPOZl9w9qh-194" vertex="1">
                    <mxGeometry x="290" y="35" width="60" height="20" as="geometry"/>
                </mxCell>
                <mxCell id="Kzh3CCmP2fzPOZl9w9qh-139" value="" style="group" parent="Kzh3CCmP2fzPOZl9w9qh-194" vertex="1" connectable="0">
                    <mxGeometry width="340" height="90" as="geometry"/>
                </mxCell>
                <mxCell id="Kzh3CCmP2fzPOZl9w9qh-133" style="edgeStyle=orthogonalEdgeStyle;curved=1;rounded=0;html=1;exitX=0;exitY=0.5;exitDx=0;exitDy=0;entryX=0;entryY=0.5;entryDx=0;entryDy=0;" parent="Kzh3CCmP2fzPOZl9w9qh-139" target="Kzh3CCmP2fzPOZl9w9qh-107" edge="1">
                    <mxGeometry relative="1" as="geometry">
                        <mxPoint x="80" y="45.18518518518499" as="sourcePoint"/>
                    </mxGeometry>
                </mxCell>
                <mxCell id="Kzh3CCmP2fzPOZl9w9qh-108" style="edgeStyle=orthogonalEdgeStyle;curved=1;rounded=0;html=1;exitX=1;exitY=0.25;exitDx=0;exitDy=0;" parent="Kzh3CCmP2fzPOZl9w9qh-139" source="Kzh3CCmP2fzPOZl9w9qh-107" edge="1">
                    <mxGeometry relative="1" as="geometry">
                        <mxPoint x="290" y="22.71428571428578" as="targetPoint"/>
                    </mxGeometry>
                </mxCell>
                <mxCell id="Kzh3CCmP2fzPOZl9w9qh-109" style="edgeStyle=orthogonalEdgeStyle;curved=1;rounded=0;html=1;exitX=1;exitY=0.5;exitDx=0;exitDy=0;" parent="Kzh3CCmP2fzPOZl9w9qh-139" source="Kzh3CCmP2fzPOZl9w9qh-107" edge="1">
                    <mxGeometry relative="1" as="geometry">
                        <mxPoint x="290" y="45" as="targetPoint"/>
                    </mxGeometry>
                </mxCell>
                <mxCell id="Kzh3CCmP2fzPOZl9w9qh-110" style="edgeStyle=orthogonalEdgeStyle;curved=1;rounded=0;html=1;exitX=1;exitY=0.75;exitDx=0;exitDy=0;" parent="Kzh3CCmP2fzPOZl9w9qh-139" source="Kzh3CCmP2fzPOZl9w9qh-107" edge="1">
                    <mxGeometry relative="1" as="geometry">
                        <mxPoint x="290" y="67.28571428571422" as="targetPoint"/>
                    </mxGeometry>
                </mxCell>
                <mxCell id="Kzh3CCmP2fzPOZl9w9qh-114" style="rounded=0;html=1;exitX=0;exitY=0.25;exitDx=0;exitDy=0;entryX=0;entryY=0.25;entryDx=0;entryDy=0;" parent="Kzh3CCmP2fzPOZl9w9qh-139" edge="1">
                    <mxGeometry relative="1" as="geometry">
                        <mxPoint x="119.99999999999994" y="14.5" as="targetPoint"/>
                        <mxPoint x="80" y="14.355932203389784" as="sourcePoint"/>
                    </mxGeometry>
                </mxCell>
                <mxCell id="Kzh3CCmP2fzPOZl9w9qh-115" style="rounded=0;html=1;exitX=0;exitY=0.75;exitDx=0;exitDy=0;entryX=0;entryY=0.75;entryDx=0;entryDy=0;" parent="Kzh3CCmP2fzPOZl9w9qh-139" edge="1">
                    <mxGeometry relative="1" as="geometry">
                        <mxPoint x="119.99999999999994" y="61.5" as="targetPoint"/>
                        <mxPoint x="80" y="61.4406779661017" as="sourcePoint"/>
                    </mxGeometry>
                </mxCell>
                <mxCell id="Kzh3CCmP2fzPOZl9w9qh-107" value="if grid is flipped or mirrored" style="rounded=0;whiteSpace=wrap;html=1;" parent="Kzh3CCmP2fzPOZl9w9qh-139" vertex="1">
                    <mxGeometry x="120" width="120" height="90" as="geometry"/>
                </mxCell>
                <mxCell id="Kzh3CCmP2fzPOZl9w9qh-111" value="flipped" style="text;html=1;strokeColor=none;fillColor=none;align=center;verticalAlign=middle;whiteSpace=wrap;rounded=0;" parent="Kzh3CCmP2fzPOZl9w9qh-139" vertex="1">
                    <mxGeometry x="290" y="12" width="50" height="20" as="geometry"/>
                </mxCell>
                <mxCell id="Kzh3CCmP2fzPOZl9w9qh-113" value="reveal" style="text;html=1;strokeColor=none;fillColor=none;align=center;verticalAlign=middle;whiteSpace=wrap;rounded=0;" parent="Kzh3CCmP2fzPOZl9w9qh-139" vertex="1">
                    <mxGeometry x="289" y="58" width="50" height="20" as="geometry"/>
                </mxCell>
                <mxCell id="Kzh3CCmP2fzPOZl9w9qh-116" value="clk" style="text;html=1;strokeColor=none;fillColor=none;align=center;verticalAlign=middle;whiteSpace=wrap;rounded=0;" parent="Kzh3CCmP2fzPOZl9w9qh-139" vertex="1">
                    <mxGeometry x="50" y="5" width="30" height="20" as="geometry"/>
                </mxCell>
                <mxCell id="Kzh3CCmP2fzPOZl9w9qh-117" value="state" style="text;html=1;strokeColor=none;fillColor=none;align=center;verticalAlign=middle;whiteSpace=wrap;rounded=0;" parent="Kzh3CCmP2fzPOZl9w9qh-139" vertex="1">
                    <mxGeometry x="40" y="19" width="40" height="20" as="geometry"/>
                </mxCell>
                <mxCell id="Kzh3CCmP2fzPOZl9w9qh-134" style="rounded=0;html=1;exitX=0;exitY=0.25;exitDx=0;exitDy=0;entryX=0;entryY=0.25;entryDx=0;entryDy=0;" parent="Kzh3CCmP2fzPOZl9w9qh-139" edge="1">
                    <mxGeometry relative="1" as="geometry">
                        <mxPoint x="119.99999999999994" y="30.139999999999986" as="targetPoint"/>
                        <mxPoint x="79.99999999999994" y="29.99593220338977" as="sourcePoint"/>
                    </mxGeometry>
                </mxCell>
                <mxCell id="Kzh3CCmP2fzPOZl9w9qh-135" style="rounded=0;html=1;exitX=0;exitY=0.75;exitDx=0;exitDy=0;entryX=0;entryY=0.75;entryDx=0;entryDy=0;" parent="Kzh3CCmP2fzPOZl9w9qh-139" edge="1">
                    <mxGeometry relative="1" as="geometry">
                        <mxPoint x="119.99999999999994" y="76.05999999999995" as="targetPoint"/>
                        <mxPoint x="79.99999999999994" y="76.00067796610165" as="sourcePoint"/>
                    </mxGeometry>
                </mxCell>
                <mxCell id="Kzh3CCmP2fzPOZl9w9qh-136" value="nxt_flipped" style="text;html=1;strokeColor=none;fillColor=none;align=center;verticalAlign=middle;whiteSpace=wrap;rounded=0;" parent="Kzh3CCmP2fzPOZl9w9qh-139" vertex="1">
                    <mxGeometry x="10" y="35" width="70" height="20" as="geometry"/>
                </mxCell>
                <mxCell id="Kzh3CCmP2fzPOZl9w9qh-137" value="nxt_mirrored" style="text;html=1;strokeColor=none;fillColor=none;align=center;verticalAlign=middle;whiteSpace=wrap;rounded=0;" parent="Kzh3CCmP2fzPOZl9w9qh-139" vertex="1">
                    <mxGeometry y="52" width="80" height="20" as="geometry"/>
                </mxCell>
                <mxCell id="Kzh3CCmP2fzPOZl9w9qh-138" value="nxt_reveal" style="text;html=1;strokeColor=none;fillColor=none;align=center;verticalAlign=middle;whiteSpace=wrap;rounded=0;" parent="Kzh3CCmP2fzPOZl9w9qh-139" vertex="1">
                    <mxGeometry x="10" y="68" width="70" height="20" as="geometry"/>
                </mxCell>
                <mxCell id="Kzh3CCmP2fzPOZl9w9qh-165" style="edgeStyle=none;rounded=0;html=1;exitX=1;exitY=0.5;exitDx=0;exitDy=0;" parent="1" source="Kzh3CCmP2fzPOZl9w9qh-164" edge="1">
                    <mxGeometry relative="1" as="geometry">
                        <mxPoint x="-342" y="567.4615384615386" as="targetPoint"/>
                    </mxGeometry>
                </mxCell>
                <mxCell id="Kzh3CCmP2fzPOZl9w9qh-167" style="edgeStyle=none;rounded=0;html=1;exitX=0;exitY=0.25;exitDx=0;exitDy=0;entryX=0;entryY=0.25;entryDx=0;entryDy=0;" parent="1" target="Kzh3CCmP2fzPOZl9w9qh-164" edge="1">
                    <mxGeometry relative="1" as="geometry">
                        <mxPoint x="-562" y="548.695652173913" as="sourcePoint"/>
                    </mxGeometry>
                </mxCell>
                <mxCell id="Kzh3CCmP2fzPOZl9w9qh-168" style="edgeStyle=none;rounded=0;html=1;exitX=0;exitY=0.75;exitDx=0;exitDy=0;entryX=0;entryY=0.75;entryDx=0;entryDy=0;" parent="1" target="Kzh3CCmP2fzPOZl9w9qh-164" edge="1">
                    <mxGeometry relative="1" as="geometry">
                        <mxPoint x="-562" y="586.3768115942028" as="sourcePoint"/>
                    </mxGeometry>
                </mxCell>
                <mxCell id="Kzh3CCmP2fzPOZl9w9qh-164" value="" style="rounded=0;whiteSpace=wrap;html=1;" parent="1" vertex="1">
                    <mxGeometry x="-522" y="530" width="120" height="75" as="geometry"/>
                </mxCell>
                <mxCell id="Kzh3CCmP2fzPOZl9w9qh-166" value="curkey" style="text;html=1;strokeColor=none;fillColor=none;align=center;verticalAlign=middle;whiteSpace=wrap;rounded=0;" parent="1" vertex="1">
                    <mxGeometry x="-342" y="557.5" width="48" height="20" as="geometry"/>
                </mxCell>
                <mxCell id="Kzh3CCmP2fzPOZl9w9qh-169" value="last_change" style="text;html=1;strokeColor=none;fillColor=none;align=center;verticalAlign=middle;whiteSpace=wrap;rounded=0;" parent="1" vertex="1">
                    <mxGeometry x="-638" y="539" width="78" height="20" as="geometry"/>
                </mxCell>
                <mxCell id="Kzh3CCmP2fzPOZl9w9qh-170" value="KEY_CODE" style="text;html=1;strokeColor=none;fillColor=none;align=center;verticalAlign=middle;whiteSpace=wrap;rounded=0;" parent="1" vertex="1">
                    <mxGeometry x="-638" y="575.5" width="78" height="20" as="geometry"/>
                </mxCell>
                <mxCell id="Kzh3CCmP2fzPOZl9w9qh-171" style="edgeStyle=none;rounded=0;html=1;exitX=1;exitY=0.5;exitDx=0;exitDy=0;entryX=0;entryY=0.5;entryDx=0;entryDy=0;" parent="1" source="Kzh3CCmP2fzPOZl9w9qh-6" target="Kzh3CCmP2fzPOZl9w9qh-27" edge="1">
                    <mxGeometry relative="1" as="geometry"/>
                </mxCell>
                <mxCell id="Kzh3CCmP2fzPOZl9w9qh-172" style="edgeStyle=none;rounded=0;html=1;exitX=0;exitY=0.5;exitDx=0;exitDy=0;entryX=0;entryY=0.5;entryDx=0;entryDy=0;" parent="1" target="Kzh3CCmP2fzPOZl9w9qh-16" edge="1">
                    <mxGeometry relative="1" as="geometry">
                        <mxPoint x="256" y="557" as="targetPoint"/>
                        <mxPoint x="226" y="420" as="sourcePoint"/>
                        <Array as="points">
                            <mxPoint x="226" y="560"/>
                        </Array>
                    </mxGeometry>
                </mxCell>
                <mxCell id="Kzh3CCmP2fzPOZl9w9qh-195" value="" style="group" parent="1" vertex="1" connectable="0">
                    <mxGeometry x="224" y="675" width="392" height="168" as="geometry"/>
                </mxCell>
                <mxCell id="Kzh3CCmP2fzPOZl9w9qh-174" style="edgeStyle=none;rounded=0;html=1;exitX=1;exitY=0.25;exitDx=0;exitDy=0;" parent="Kzh3CCmP2fzPOZl9w9qh-195" edge="1">
                    <mxGeometry relative="1" as="geometry">
                        <mxPoint x="322" y="44.390243902439124" as="targetPoint"/>
                        <mxPoint x="272" y="44.25" as="sourcePoint"/>
                    </mxGeometry>
                </mxCell>
                <mxCell id="Kzh3CCmP2fzPOZl9w9qh-175" style="edgeStyle=none;rounded=0;html=1;exitX=1;exitY=0.75;exitDx=0;exitDy=0;" parent="Kzh3CCmP2fzPOZl9w9qh-195" edge="1">
                    <mxGeometry relative="1" as="geometry">
                        <mxPoint x="322" y="126.58536585365857" as="targetPoint"/>
                        <mxPoint x="272" y="126.75" as="sourcePoint"/>
                    </mxGeometry>
                </mxCell>
                <mxCell id="Kzh3CCmP2fzPOZl9w9qh-186" style="edgeStyle=none;rounded=0;html=1;exitX=0;exitY=0.5;exitDx=0;exitDy=0;entryX=0;entryY=0.5;entryDx=0;entryDy=0;" parent="Kzh3CCmP2fzPOZl9w9qh-195" edge="1">
                    <mxGeometry relative="1" as="geometry">
                        <mxPoint x="111" y="116.49999999999989" as="targetPoint"/>
                        <mxPoint x="61" y="116.53488372093022" as="sourcePoint"/>
                    </mxGeometry>
                </mxCell>
                <mxCell id="Kzh3CCmP2fzPOZl9w9qh-187" style="edgeStyle=none;rounded=0;html=1;exitX=0;exitY=0.25;exitDx=0;exitDy=0;entryX=0;entryY=0.25;entryDx=0;entryDy=0;" parent="Kzh3CCmP2fzPOZl9w9qh-195" edge="1">
                    <mxGeometry relative="1" as="geometry">
                        <mxPoint x="111" y="95.25" as="targetPoint"/>
                        <mxPoint x="61" y="95.28571428571422" as="sourcePoint"/>
                    </mxGeometry>
                </mxCell>
                <mxCell id="Kzh3CCmP2fzPOZl9w9qh-188" style="edgeStyle=none;rounded=0;html=1;exitX=0;exitY=0.75;exitDx=0;exitDy=0;entryX=0;entryY=0.75;entryDx=0;entryDy=0;" parent="Kzh3CCmP2fzPOZl9w9qh-195" edge="1">
                    <mxGeometry relative="1" as="geometry">
                        <mxPoint x="111" y="137.7499999999999" as="targetPoint"/>
                        <mxPoint x="61" y="137.66666666666663" as="sourcePoint"/>
                    </mxGeometry>
                </mxCell>
                <mxCell id="Kzh3CCmP2fzPOZl9w9qh-173" value="mem_addr_gen" style="rounded=0;whiteSpace=wrap;html=1;" parent="Kzh3CCmP2fzPOZl9w9qh-195" vertex="1">
                    <mxGeometry x="111" y="3" width="161" height="165" as="geometry"/>
                </mxCell>
                <mxCell id="Kzh3CCmP2fzPOZl9w9qh-176" value="pixel_addr" style="text;html=1;strokeColor=none;fillColor=none;align=center;verticalAlign=middle;whiteSpace=wrap;rounded=0;" parent="Kzh3CCmP2fzPOZl9w9qh-195" vertex="1">
                    <mxGeometry x="322" y="33" width="70" height="20" as="geometry"/>
                </mxCell>
                <mxCell id="Kzh3CCmP2fzPOZl9w9qh-177" value="show" style="text;html=1;strokeColor=none;fillColor=none;align=center;verticalAlign=middle;whiteSpace=wrap;rounded=0;" parent="Kzh3CCmP2fzPOZl9w9qh-195" vertex="1">
                    <mxGeometry x="322" y="116" width="40" height="20" as="geometry"/>
                </mxCell>
                <mxCell id="Kzh3CCmP2fzPOZl9w9qh-178" value="clk22" style="text;html=1;strokeColor=none;fillColor=none;align=center;verticalAlign=middle;whiteSpace=wrap;rounded=0;" parent="Kzh3CCmP2fzPOZl9w9qh-195" vertex="1">
                    <mxGeometry x="20" width="41" height="20" as="geometry"/>
                </mxCell>
                <mxCell id="Kzh3CCmP2fzPOZl9w9qh-179" value="rst" style="text;html=1;strokeColor=none;fillColor=none;align=center;verticalAlign=middle;whiteSpace=wrap;rounded=0;" parent="Kzh3CCmP2fzPOZl9w9qh-195" vertex="1">
                    <mxGeometry x="31" y="21" width="30" height="20" as="geometry"/>
                </mxCell>
                <mxCell id="Kzh3CCmP2fzPOZl9w9qh-180" value="h_cnt" style="text;html=1;strokeColor=none;fillColor=none;align=center;verticalAlign=middle;whiteSpace=wrap;rounded=0;" parent="Kzh3CCmP2fzPOZl9w9qh-195" vertex="1">
                    <mxGeometry x="18" y="42" width="40" height="20" as="geometry"/>
                </mxCell>
                <mxCell id="Kzh3CCmP2fzPOZl9w9qh-181" value="v_cnt" style="text;html=1;strokeColor=none;fillColor=none;align=center;verticalAlign=middle;whiteSpace=wrap;rounded=0;" parent="Kzh3CCmP2fzPOZl9w9qh-195" vertex="1">
                    <mxGeometry x="18" y="63" width="40" height="20" as="geometry"/>
                </mxCell>
                <mxCell id="Kzh3CCmP2fzPOZl9w9qh-182" value="hintstate" style="text;html=1;strokeColor=none;fillColor=none;align=center;verticalAlign=middle;whiteSpace=wrap;rounded=0;" parent="Kzh3CCmP2fzPOZl9w9qh-195" vertex="1">
                    <mxGeometry x="6" y="148" width="50" height="20" as="geometry"/>
                </mxCell>
                <mxCell id="Kzh3CCmP2fzPOZl9w9qh-183" value="mirrored" style="text;html=1;strokeColor=none;fillColor=none;align=center;verticalAlign=middle;whiteSpace=wrap;rounded=0;" parent="Kzh3CCmP2fzPOZl9w9qh-195" vertex="1">
                    <mxGeometry y="106" width="60" height="20" as="geometry"/>
                </mxCell>
                <mxCell id="Kzh3CCmP2fzPOZl9w9qh-184" value="flipped" style="text;html=1;strokeColor=none;fillColor=none;align=center;verticalAlign=middle;whiteSpace=wrap;rounded=0;" parent="Kzh3CCmP2fzPOZl9w9qh-195" vertex="1">
                    <mxGeometry x="10" y="86" width="50" height="20" as="geometry"/>
                </mxCell>
                <mxCell id="Kzh3CCmP2fzPOZl9w9qh-185" value="reveal" style="text;html=1;strokeColor=none;fillColor=none;align=center;verticalAlign=middle;whiteSpace=wrap;rounded=0;" parent="Kzh3CCmP2fzPOZl9w9qh-195" vertex="1">
                    <mxGeometry x="10" y="128" width="50" height="20" as="geometry"/>
                </mxCell>
                <mxCell id="Kzh3CCmP2fzPOZl9w9qh-189" style="edgeStyle=none;rounded=0;html=1;exitX=0;exitY=0.75;exitDx=0;exitDy=0;entryX=0;entryY=0.75;entryDx=0;entryDy=0;" parent="Kzh3CCmP2fzPOZl9w9qh-195" edge="1">
                    <mxGeometry relative="1" as="geometry">
                        <mxPoint x="111" y="159.07999999999993" as="targetPoint"/>
                        <mxPoint x="61" y="158.99666666666667" as="sourcePoint"/>
                    </mxGeometry>
                </mxCell>
                <mxCell id="Kzh3CCmP2fzPOZl9w9qh-190" style="edgeStyle=none;rounded=0;html=1;exitX=0;exitY=0.5;exitDx=0;exitDy=0;entryX=0;entryY=0.5;entryDx=0;entryDy=0;" parent="Kzh3CCmP2fzPOZl9w9qh-195" edge="1">
                    <mxGeometry relative="1" as="geometry">
                        <mxPoint x="111" y="31.249999999999886" as="targetPoint"/>
                        <mxPoint x="61" y="31.284883720930225" as="sourcePoint"/>
                    </mxGeometry>
                </mxCell>
                <mxCell id="Kzh3CCmP2fzPOZl9w9qh-191" style="edgeStyle=none;rounded=0;html=1;exitX=0;exitY=0.25;exitDx=0;exitDy=0;entryX=0;entryY=0.25;entryDx=0;entryDy=0;" parent="Kzh3CCmP2fzPOZl9w9qh-195" edge="1">
                    <mxGeometry relative="1" as="geometry">
                        <mxPoint x="111" y="10" as="targetPoint"/>
                        <mxPoint x="61" y="10.03571428571422" as="sourcePoint"/>
                    </mxGeometry>
                </mxCell>
                <mxCell id="Kzh3CCmP2fzPOZl9w9qh-192" style="edgeStyle=none;rounded=0;html=1;exitX=0;exitY=0.75;exitDx=0;exitDy=0;entryX=0;entryY=0.75;entryDx=0;entryDy=0;" parent="Kzh3CCmP2fzPOZl9w9qh-195" edge="1">
                    <mxGeometry relative="1" as="geometry">
                        <mxPoint x="111" y="52.499999999999886" as="targetPoint"/>
                        <mxPoint x="61" y="52.41666666666663" as="sourcePoint"/>
                    </mxGeometry>
                </mxCell>
                <mxCell id="Kzh3CCmP2fzPOZl9w9qh-193" style="edgeStyle=none;rounded=0;html=1;exitX=0;exitY=0.75;exitDx=0;exitDy=0;entryX=0;entryY=0.75;entryDx=0;entryDy=0;" parent="Kzh3CCmP2fzPOZl9w9qh-195" edge="1">
                    <mxGeometry relative="1" as="geometry">
                        <mxPoint x="111" y="73.82999999999993" as="targetPoint"/>
                        <mxPoint x="61" y="73.74666666666667" as="sourcePoint"/>
                    </mxGeometry>
                </mxCell>
                <mxCell id="Y7LhTmHMka8ZlY3bkCZf-1" style="edgeStyle=none;html=1;exitX=1;exitY=0.5;exitDx=0;exitDy=0;" parent="1" source="Y7LhTmHMka8ZlY3bkCZf-6" edge="1">
                    <mxGeometry relative="1" as="geometry">
                        <mxPoint x="894.5" y="442.94029850746267" as="targetPoint"/>
                    </mxGeometry>
                </mxCell>
                <mxCell id="Y7LhTmHMka8ZlY3bkCZf-2" style="edgeStyle=none;html=1;exitX=1;exitY=0.25;exitDx=0;exitDy=0;" parent="1" source="Y7LhTmHMka8ZlY3bkCZf-6" edge="1">
                    <mxGeometry relative="1" as="geometry">
                        <mxPoint x="894.5" y="420.5522388059701" as="targetPoint"/>
                    </mxGeometry>
                </mxCell>
                <mxCell id="Y7LhTmHMka8ZlY3bkCZf-3" style="edgeStyle=none;html=1;exitX=1;exitY=0.75;exitDx=0;exitDy=0;" parent="1" source="Y7LhTmHMka8ZlY3bkCZf-6" edge="1">
                    <mxGeometry relative="1" as="geometry">
                        <mxPoint x="894.5" y="465.6268656716418" as="targetPoint"/>
                    </mxGeometry>
                </mxCell>
                <mxCell id="Y7LhTmHMka8ZlY3bkCZf-4" style="edgeStyle=none;html=1;exitX=0;exitY=0.25;exitDx=0;exitDy=0;entryX=0;entryY=0.25;entryDx=0;entryDy=0;" parent="1" target="Y7LhTmHMka8ZlY3bkCZf-6" edge="1">
                    <mxGeometry relative="1" as="geometry">
                        <mxPoint x="684.5" y="420.4074074074074" as="sourcePoint"/>
                    </mxGeometry>
                </mxCell>
                <mxCell id="Y7LhTmHMka8ZlY3bkCZf-5" style="edgeStyle=none;html=1;exitX=0;exitY=0.75;exitDx=0;exitDy=0;entryX=0;entryY=0.75;entryDx=0;entryDy=0;" parent="1" target="Y7LhTmHMka8ZlY3bkCZf-6" edge="1">
                    <mxGeometry relative="1" as="geometry">
                        <mxPoint x="684.5" y="465.5925925925926" as="sourcePoint"/>
                    </mxGeometry>
                </mxCell>
                <mxCell id="Y7LhTmHMka8ZlY3bkCZf-6" value="output port" style="rounded=0;whiteSpace=wrap;html=1;" parent="1" vertex="1">
                    <mxGeometry x="724.5" y="398" width="120" height="90" as="geometry"/>
                </mxCell>
                <mxCell id="Y7LhTmHMka8ZlY3bkCZf-7" value="valid" style="text;html=1;strokeColor=none;fillColor=none;align=center;verticalAlign=middle;whiteSpace=wrap;rounded=0;" parent="1" vertex="1">
                    <mxGeometry x="648" y="410" width="40" height="20" as="geometry"/>
                </mxCell>
                <mxCell id="Y7LhTmHMka8ZlY3bkCZf-8" value="pixel" style="text;html=1;strokeColor=none;fillColor=none;align=center;verticalAlign=middle;whiteSpace=wrap;rounded=0;" parent="1" vertex="1">
                    <mxGeometry x="648" y="433" width="40" height="20" as="geometry"/>
                </mxCell>
                <mxCell id="Y7LhTmHMka8ZlY3bkCZf-9" value="vgaRed" style="text;html=1;strokeColor=none;fillColor=none;align=center;verticalAlign=middle;whiteSpace=wrap;rounded=0;" parent="1" vertex="1">
                    <mxGeometry x="894.5" y="410" width="50" height="20" as="geometry"/>
                </mxCell>
                <mxCell id="Y7LhTmHMka8ZlY3bkCZf-10" value="vgaBlue" style="text;html=1;strokeColor=none;fillColor=none;align=center;verticalAlign=middle;whiteSpace=wrap;rounded=0;" parent="1" vertex="1">
                    <mxGeometry x="894.5" y="456" width="50" height="20" as="geometry"/>
                </mxCell>
                <mxCell id="Y7LhTmHMka8ZlY3bkCZf-11" value="vgaGreen" style="text;html=1;strokeColor=none;fillColor=none;align=center;verticalAlign=middle;whiteSpace=wrap;rounded=0;" parent="1" vertex="1">
                    <mxGeometry x="894.5" y="433" width="60" height="20" as="geometry"/>
                </mxCell>
                <mxCell id="Y7LhTmHMka8ZlY3bkCZf-13" style="edgeStyle=none;html=1;exitX=0;exitY=0.25;exitDx=0;exitDy=0;entryX=0;entryY=0.25;entryDx=0;entryDy=0;" parent="1" edge="1">
                    <mxGeometry relative="1" as="geometry">
                        <mxPoint x="684.5" y="442.79740740740726" as="sourcePoint"/>
                        <mxPoint x="724.5" y="442.89" as="targetPoint"/>
                    </mxGeometry>
                </mxCell>
                <mxCell id="Y7LhTmHMka8ZlY3bkCZf-14" value="show" style="text;html=1;strokeColor=none;fillColor=none;align=center;verticalAlign=middle;whiteSpace=wrap;rounded=0;" parent="1" vertex="1">
                    <mxGeometry x="646" y="456" width="40" height="20" as="geometry"/>
                </mxCell>
                <mxCell id="Y7LhTmHMka8ZlY3bkCZf-15" style="edgeStyle=none;rounded=0;html=1;exitX=1;exitY=0.5;exitDx=0;exitDy=0;entryX=0;entryY=0.5;entryDx=0;entryDy=0;" parent="1" source="Kzh3CCmP2fzPOZl9w9qh-123" target="Kzh3CCmP2fzPOZl9w9qh-182" edge="1">
                    <mxGeometry relative="1" as="geometry"/>
                </mxCell>
                <mxCell id="Kzh3CCmP2fzPOZl9w9qh-10" style="edgeStyle=none;html=1;exitX=0;exitY=0.25;exitDx=0;exitDy=0;entryX=0;entryY=0.25;entryDx=0;entryDy=0;" parent="1" target="Kzh3CCmP2fzPOZl9w9qh-15" edge="1">
                    <mxGeometry relative="1" as="geometry">
                        <mxPoint x="326" y="560.6603773584907" as="sourcePoint"/>
                    </mxGeometry>
                </mxCell>
                <mxCell id="Kzh3CCmP2fzPOZl9w9qh-11" style="edgeStyle=none;html=1;exitX=0;exitY=0.75;exitDx=0;exitDy=0;entryX=0;entryY=0.75;entryDx=0;entryDy=0;" parent="1" target="Kzh3CCmP2fzPOZl9w9qh-15" edge="1">
                    <mxGeometry relative="1" as="geometry">
                        <mxPoint x="326" y="605.566037735849" as="sourcePoint"/>
                    </mxGeometry>
                </mxCell>
                <mxCell id="Kzh3CCmP2fzPOZl9w9qh-12" style="edgeStyle=none;html=1;exitX=1;exitY=0.25;exitDx=0;exitDy=0;entryX=0;entryY=0.5;entryDx=0;entryDy=0;" parent="1" target="Kzh3CCmP2fzPOZl9w9qh-20" edge="1">
                    <mxGeometry relative="1" as="geometry">
                        <mxPoint x="556" y="550.1603773584907" as="targetPoint"/>
                        <mxPoint x="496" y="550" as="sourcePoint"/>
                    </mxGeometry>
                </mxCell>
                <mxCell id="Kzh3CCmP2fzPOZl9w9qh-13" style="edgeStyle=none;html=1;exitX=1;exitY=0.5;exitDx=0;exitDy=0;" parent="1" source="Kzh3CCmP2fzPOZl9w9qh-15" edge="1">
                    <mxGeometry relative="1" as="geometry">
                        <mxPoint x="556" y="582.9245283018868" as="targetPoint"/>
                    </mxGeometry>
                </mxCell>
                <mxCell id="Kzh3CCmP2fzPOZl9w9qh-14" style="edgeStyle=none;html=1;exitX=1;exitY=0.75;exitDx=0;exitDy=0;" parent="1" edge="1">
                    <mxGeometry relative="1" as="geometry">
                        <mxPoint x="556" y="599.566037735849" as="targetPoint"/>
                        <mxPoint x="496" y="599.5" as="sourcePoint"/>
                    </mxGeometry>
                </mxCell>
                <mxCell id="Kzh3CCmP2fzPOZl9w9qh-15" value="vga_controller" style="rounded=0;whiteSpace=wrap;html=1;" parent="1" vertex="1">
                    <mxGeometry x="376" y="538" width="120" height="90" as="geometry"/>
                </mxCell>
                <mxCell id="Kzh3CCmP2fzPOZl9w9qh-16" value="clk_25MHz" style="text;html=1;strokeColor=none;fillColor=none;align=center;verticalAlign=middle;whiteSpace=wrap;rounded=0;" parent="1" vertex="1">
                    <mxGeometry x="256" y="550" width="70" height="20" as="geometry"/>
                </mxCell>
                <mxCell id="Kzh3CCmP2fzPOZl9w9qh-17" value="rst" style="text;html=1;strokeColor=none;fillColor=none;align=center;verticalAlign=middle;whiteSpace=wrap;rounded=0;" parent="1" vertex="1">
                    <mxGeometry x="296" y="596" width="30" height="20" as="geometry"/>
                </mxCell>
                <mxCell id="Kzh3CCmP2fzPOZl9w9qh-18" style="edgeStyle=none;html=1;exitX=1;exitY=0.25;exitDx=0;exitDy=0;entryX=0;entryY=0.5;entryDx=0;entryDy=0;" parent="1" target="Kzh3CCmP2fzPOZl9w9qh-21" edge="1">
                    <mxGeometry relative="1" as="geometry">
                        <mxPoint x="556" y="567.1603773584907" as="targetPoint"/>
                        <mxPoint x="496" y="567" as="sourcePoint"/>
                    </mxGeometry>
                </mxCell>
                <mxCell id="Kzh3CCmP2fzPOZl9w9qh-19" style="edgeStyle=none;html=1;exitX=1;exitY=0.75;exitDx=0;exitDy=0;" parent="1" edge="1">
                    <mxGeometry relative="1" as="geometry">
                        <mxPoint x="556" y="615.066037735849" as="targetPoint"/>
                        <mxPoint x="496" y="615" as="sourcePoint"/>
                    </mxGeometry>
                </mxCell>
                <mxCell id="Kzh3CCmP2fzPOZl9w9qh-20" value="hsync" style="text;html=1;strokeColor=none;fillColor=none;align=center;verticalAlign=middle;whiteSpace=wrap;rounded=0;" parent="1" vertex="1">
                    <mxGeometry x="891" y="542" width="45" height="18" as="geometry"/>
                </mxCell>
                <mxCell id="Kzh3CCmP2fzPOZl9w9qh-21" value="vsync" style="text;html=1;strokeColor=none;fillColor=none;align=center;verticalAlign=middle;whiteSpace=wrap;rounded=0;" parent="1" vertex="1">
                    <mxGeometry x="889" y="559" width="50" height="20" as="geometry"/>
                </mxCell>
                <mxCell id="Kzh3CCmP2fzPOZl9w9qh-22" value="valid" style="text;html=1;strokeColor=none;fillColor=none;align=center;verticalAlign=middle;whiteSpace=wrap;rounded=0;" parent="1" vertex="1">
                    <mxGeometry x="556" y="573" width="40" height="20" as="geometry"/>
                </mxCell>
                <mxCell id="Kzh3CCmP2fzPOZl9w9qh-23" value="h_cnt" style="text;html=1;strokeColor=none;fillColor=none;align=center;verticalAlign=middle;whiteSpace=wrap;rounded=0;" parent="1" vertex="1">
                    <mxGeometry x="558" y="589" width="40" height="20" as="geometry"/>
                </mxCell>
                <mxCell id="Kzh3CCmP2fzPOZl9w9qh-24" value="v_cnt" style="text;html=1;strokeColor=none;fillColor=none;align=center;verticalAlign=middle;whiteSpace=wrap;rounded=0;" parent="1" vertex="1">
                    <mxGeometry x="558" y="605" width="40" height="20" as="geometry"/>
                </mxCell>
                <mxCell id="Y7LhTmHMka8ZlY3bkCZf-18" style="edgeStyle=none;rounded=0;html=1;exitX=0;exitY=0.5;exitDx=0;exitDy=0;entryX=0;entryY=0.5;entryDx=0;entryDy=0;" parent="1" edge="1">
                    <mxGeometry relative="1" as="geometry">
                        <mxPoint x="-680" y="453" as="targetPoint"/>
                        <mxPoint x="-730" y="453" as="sourcePoint"/>
                    </mxGeometry>
                </mxCell>
                <mxCell id="Y7LhTmHMka8ZlY3bkCZf-19" style="edgeStyle=none;rounded=0;html=1;exitX=0;exitY=0.25;exitDx=0;exitDy=0;entryX=0;entryY=0.25;entryDx=0;entryDy=0;" parent="1" edge="1">
                    <mxGeometry relative="1" as="geometry">
                        <mxPoint x="-680" y="430.5" as="targetPoint"/>
                        <mxPoint x="-730" y="430.61403508771923" as="sourcePoint"/>
                    </mxGeometry>
                </mxCell>
                <mxCell id="Y7LhTmHMka8ZlY3bkCZf-20" value="rst" style="text;html=1;strokeColor=none;fillColor=none;align=center;verticalAlign=middle;whiteSpace=wrap;rounded=0;" parent="1" vertex="1">
                    <mxGeometry x="-760" y="443" width="30" height="20" as="geometry"/>
                </mxCell>
                <mxCell id="Y7LhTmHMka8ZlY3bkCZf-21" value="clk" style="text;html=1;strokeColor=none;fillColor=none;align=center;verticalAlign=middle;whiteSpace=wrap;rounded=0;" parent="1" vertex="1">
                    <mxGeometry x="-760" y="423" width="30" height="20" as="geometry"/>
                </mxCell>
            </root>
        </mxGraphModel>
    </diagram>
    <diagram id="hxFmCv5INQvHBzAvgmU1" name="5-1">
        <mxGraphModel dx="986" dy="499" grid="1" gridSize="10" guides="1" tooltips="1" connect="1" arrows="1" fold="1" page="1" pageScale="1" pageWidth="1100" pageHeight="850" math="0" shadow="0">
            <root>
                <mxCell id="0"/>
                <mxCell id="1" parent="0"/>
                <mxCell id="137" style="edgeStyle=none;rounded=0;html=1;exitX=0;exitY=0.25;exitDx=0;exitDy=0;entryX=0;entryY=0.25;entryDx=0;entryDy=0;" parent="1" target="130" edge="1">
                    <mxGeometry relative="1" as="geometry">
                        <mxPoint x="170" y="210.14634146341473" as="sourcePoint"/>
                    </mxGeometry>
                </mxCell>
                <mxCell id="138" style="edgeStyle=none;rounded=0;html=1;exitX=0;exitY=0.5;exitDx=0;exitDy=0;entryX=0;entryY=0.5;entryDx=0;entryDy=0;" parent="1" target="130" edge="1">
                    <mxGeometry relative="1" as="geometry">
                        <mxPoint x="170" y="359.90243902439033" as="sourcePoint"/>
                    </mxGeometry>
                </mxCell>
                <mxCell id="139" style="edgeStyle=none;rounded=0;html=1;exitX=0;exitY=0.75;exitDx=0;exitDy=0;entryX=0;entryY=0.75;entryDx=0;entryDy=0;" parent="1" target="130" edge="1">
                    <mxGeometry relative="1" as="geometry">
                        <mxPoint x="170" y="510.14634146341473" as="sourcePoint"/>
                    </mxGeometry>
                </mxCell>
                <mxCell id="151" style="edgeStyle=none;rounded=0;html=1;exitX=1;exitY=0.5;exitDx=0;exitDy=0;" parent="1" source="130" edge="1">
                    <mxGeometry relative="1" as="geometry">
                        <mxPoint x="1680" y="359.81818181818187" as="targetPoint"/>
                    </mxGeometry>
                </mxCell>
                <mxCell id="153" style="edgeStyle=none;rounded=0;html=1;exitX=1;exitY=0.75;exitDx=0;exitDy=0;" parent="1" source="130" edge="1">
                    <mxGeometry relative="1" as="geometry">
                        <mxPoint x="1680" y="510.1212121212121" as="targetPoint"/>
                    </mxGeometry>
                </mxCell>
                <mxCell id="154" style="edgeStyle=none;rounded=0;html=1;exitX=1;exitY=0.25;exitDx=0;exitDy=0;" parent="1" source="130" edge="1">
                    <mxGeometry relative="1" as="geometry">
                        <mxPoint x="1680" y="210.12121212121212" as="targetPoint"/>
                    </mxGeometry>
                </mxCell>
                <mxCell id="130" value="" style="rounded=1;whiteSpace=wrap;html=1;dashed=1;" parent="1" vertex="1">
                    <mxGeometry x="250" y="60" width="1330" height="600" as="geometry"/>
                </mxCell>
                <mxCell id="7" style="edgeStyle=none;html=1;exitX=1;exitY=0.5;exitDx=0;exitDy=0;" parent="1" source="3" edge="1">
                    <mxGeometry relative="1" as="geometry">
                        <mxPoint x="480" y="119.83018867924534" as="targetPoint"/>
                    </mxGeometry>
                </mxCell>
                <mxCell id="11" style="edgeStyle=none;html=1;exitX=0;exitY=0.5;exitDx=0;exitDy=0;entryX=0;entryY=0.5;entryDx=0;entryDy=0;" parent="1" target="3" edge="1">
                    <mxGeometry relative="1" as="geometry">
                        <mxPoint x="300.0000000000001" y="119.83018867924534" as="sourcePoint"/>
                    </mxGeometry>
                </mxCell>
                <mxCell id="3" value="clock_divider" style="rounded=0;whiteSpace=wrap;html=1;" parent="1" vertex="1">
                    <mxGeometry x="340" y="90" width="100" height="60" as="geometry"/>
                </mxCell>
                <mxCell id="135" style="edgeStyle=none;rounded=0;html=1;exitX=1;exitY=0.5;exitDx=0;exitDy=0;entryX=0.001;entryY=0.373;entryDx=0;entryDy=0;entryPerimeter=0;" parent="1" source="6" target="30" edge="1">
                    <mxGeometry relative="1" as="geometry">
                        <Array as="points">
                            <mxPoint x="610" y="120"/>
                            <mxPoint x="610" y="110"/>
                        </Array>
                    </mxGeometry>
                </mxCell>
                <mxCell id="136" style="edgeStyle=none;rounded=0;html=1;entryX=0;entryY=0.5;entryDx=0;entryDy=0;" parent="1" target="16" edge="1">
                    <mxGeometry relative="1" as="geometry">
                        <mxPoint x="600" y="120" as="sourcePoint"/>
                        <Array as="points">
                            <mxPoint x="600" y="252"/>
                        </Array>
                    </mxGeometry>
                </mxCell>
                <mxCell id="6" value="clk_25MHz" style="text;html=1;strokeColor=none;fillColor=none;align=center;verticalAlign=middle;whiteSpace=wrap;rounded=0;" parent="1" vertex="1">
                    <mxGeometry x="480" y="110" width="70" height="20" as="geometry"/>
                </mxCell>
                <mxCell id="9" value="clk" style="text;html=1;strokeColor=none;fillColor=none;align=center;verticalAlign=middle;whiteSpace=wrap;rounded=0;" parent="1" vertex="1">
                    <mxGeometry x="270" y="110" width="30" height="20" as="geometry"/>
                </mxCell>
                <mxCell id="32" style="edgeStyle=none;html=1;exitX=1;exitY=0.5;exitDx=0;exitDy=0;" parent="1" source="12" edge="1">
                    <mxGeometry relative="1" as="geometry">
                        <mxPoint x="960" y="134.8461538461538" as="targetPoint"/>
                    </mxGeometry>
                </mxCell>
                <mxCell id="12" value="blk_mem_gen_0" style="rounded=0;whiteSpace=wrap;html=1;" parent="1" vertex="1">
                    <mxGeometry x="790" y="90" width="120" height="90" as="geometry"/>
                </mxCell>
                <mxCell id="14" style="edgeStyle=none;html=1;exitX=0;exitY=0.25;exitDx=0;exitDy=0;entryX=0;entryY=0.25;entryDx=0;entryDy=0;" parent="1" target="13" edge="1">
                    <mxGeometry relative="1" as="geometry">
                        <mxPoint x="740" y="252.66037735849056" as="sourcePoint"/>
                    </mxGeometry>
                </mxCell>
                <mxCell id="15" style="edgeStyle=none;html=1;exitX=0;exitY=0.75;exitDx=0;exitDy=0;entryX=0;entryY=0.75;entryDx=0;entryDy=0;" parent="1" target="13" edge="1">
                    <mxGeometry relative="1" as="geometry">
                        <mxPoint x="740" y="297.56603773584914" as="sourcePoint"/>
                    </mxGeometry>
                </mxCell>
                <mxCell id="18" style="edgeStyle=none;html=1;exitX=1;exitY=0.25;exitDx=0;exitDy=0;" parent="1" edge="1">
                    <mxGeometry relative="1" as="geometry">
                        <mxPoint x="970" y="242.16037735849056" as="targetPoint"/>
                        <mxPoint x="910" y="242" as="sourcePoint"/>
                    </mxGeometry>
                </mxCell>
                <mxCell id="19" style="edgeStyle=none;html=1;exitX=1;exitY=0.5;exitDx=0;exitDy=0;" parent="1" source="13" edge="1">
                    <mxGeometry relative="1" as="geometry">
                        <mxPoint x="970" y="274.92452830188677" as="targetPoint"/>
                    </mxGeometry>
                </mxCell>
                <mxCell id="20" style="edgeStyle=none;html=1;exitX=1;exitY=0.75;exitDx=0;exitDy=0;" parent="1" edge="1">
                    <mxGeometry relative="1" as="geometry">
                        <mxPoint x="970" y="291.56603773584914" as="targetPoint"/>
                        <mxPoint x="910" y="291.5" as="sourcePoint"/>
                    </mxGeometry>
                </mxCell>
                <mxCell id="13" value="vga_controller" style="rounded=0;whiteSpace=wrap;html=1;" parent="1" vertex="1">
                    <mxGeometry x="790" y="230" width="120" height="90" as="geometry"/>
                </mxCell>
                <mxCell id="16" value="clk_25MHz" style="text;html=1;strokeColor=none;fillColor=none;align=center;verticalAlign=middle;whiteSpace=wrap;rounded=0;" parent="1" vertex="1">
                    <mxGeometry x="670" y="242" width="70" height="20" as="geometry"/>
                </mxCell>
                <mxCell id="17" value="rst" style="text;html=1;strokeColor=none;fillColor=none;align=center;verticalAlign=middle;whiteSpace=wrap;rounded=0;" parent="1" vertex="1">
                    <mxGeometry x="710" y="288" width="30" height="20" as="geometry"/>
                </mxCell>
                <mxCell id="21" style="edgeStyle=none;html=1;exitX=1;exitY=0.25;exitDx=0;exitDy=0;" parent="1" edge="1">
                    <mxGeometry relative="1" as="geometry">
                        <mxPoint x="970" y="259.16037735849056" as="targetPoint"/>
                        <mxPoint x="910" y="259" as="sourcePoint"/>
                    </mxGeometry>
                </mxCell>
                <mxCell id="22" style="edgeStyle=none;html=1;exitX=1;exitY=0.75;exitDx=0;exitDy=0;" parent="1" edge="1">
                    <mxGeometry relative="1" as="geometry">
                        <mxPoint x="970" y="307.06603773584914" as="targetPoint"/>
                        <mxPoint x="910" y="307" as="sourcePoint"/>
                    </mxGeometry>
                </mxCell>
                <mxCell id="23" value="hsync" style="text;html=1;strokeColor=none;fillColor=none;align=center;verticalAlign=middle;whiteSpace=wrap;rounded=0;" parent="1" vertex="1">
                    <mxGeometry x="968" y="232" width="50" height="20" as="geometry"/>
                </mxCell>
                <mxCell id="24" value="vsync" style="text;html=1;strokeColor=none;fillColor=none;align=center;verticalAlign=middle;whiteSpace=wrap;rounded=0;" parent="1" vertex="1">
                    <mxGeometry x="968" y="250" width="50" height="20" as="geometry"/>
                </mxCell>
                <mxCell id="134" style="edgeStyle=none;rounded=0;html=1;exitX=1;exitY=0.5;exitDx=0;exitDy=0;entryX=0.5;entryY=1;entryDx=0;entryDy=0;" parent="1" source="25" target="115" edge="1">
                    <mxGeometry relative="1" as="geometry">
                        <Array as="points">
                            <mxPoint x="1207" y="275"/>
                        </Array>
                    </mxGeometry>
                </mxCell>
                <mxCell id="25" value="valid" style="text;html=1;strokeColor=none;fillColor=none;align=center;verticalAlign=middle;whiteSpace=wrap;rounded=0;" parent="1" vertex="1">
                    <mxGeometry x="970" y="265" width="40" height="20" as="geometry"/>
                </mxCell>
                <mxCell id="133" style="edgeStyle=none;rounded=0;html=1;exitX=1;exitY=0.5;exitDx=0;exitDy=0;entryX=0.676;entryY=0.004;entryDx=0;entryDy=0;entryPerimeter=0;" parent="1" source="26" target="89" edge="1">
                    <mxGeometry relative="1" as="geometry">
                        <Array as="points">
                            <mxPoint x="1100" y="290"/>
                        </Array>
                    </mxGeometry>
                </mxCell>
                <mxCell id="26" value="h_cnt" style="text;html=1;strokeColor=none;fillColor=none;align=center;verticalAlign=middle;whiteSpace=wrap;rounded=0;" parent="1" vertex="1">
                    <mxGeometry x="972" y="281" width="40" height="20" as="geometry"/>
                </mxCell>
                <mxCell id="132" style="edgeStyle=none;rounded=0;html=1;exitX=1;exitY=0.5;exitDx=0;exitDy=0;entryX=0.621;entryY=0.004;entryDx=0;entryDy=0;entryPerimeter=0;" parent="1" source="27" target="89" edge="1">
                    <mxGeometry relative="1" as="geometry">
                        <Array as="points">
                            <mxPoint x="1040" y="307"/>
                        </Array>
                    </mxGeometry>
                </mxCell>
                <mxCell id="27" value="v_cnt" style="text;html=1;strokeColor=none;fillColor=none;align=center;verticalAlign=middle;whiteSpace=wrap;rounded=0;" parent="1" vertex="1">
                    <mxGeometry x="972" y="297" width="40" height="20" as="geometry"/>
                </mxCell>
                <mxCell id="28" style="edgeStyle=none;html=1;exitX=0;exitY=0.25;exitDx=0;exitDy=0;entryX=0;entryY=0.25;entryDx=0;entryDy=0;" parent="1" edge="1">
                    <mxGeometry relative="1" as="geometry">
                        <mxPoint x="790" y="112.5" as="targetPoint"/>
                        <mxPoint x="740" y="112.66037735849045" as="sourcePoint"/>
                    </mxGeometry>
                </mxCell>
                <mxCell id="29" style="edgeStyle=none;html=1;exitX=0;exitY=0.75;exitDx=0;exitDy=0;entryX=0;entryY=0.75;entryDx=0;entryDy=0;" parent="1" edge="1">
                    <mxGeometry relative="1" as="geometry">
                        <mxPoint x="790" y="157.5" as="targetPoint"/>
                        <mxPoint x="740" y="157.56603773584914" as="sourcePoint"/>
                    </mxGeometry>
                </mxCell>
                <mxCell id="30" value="clk_25MHz" style="text;html=1;strokeColor=none;fillColor=none;align=center;verticalAlign=middle;whiteSpace=wrap;rounded=0;" parent="1" vertex="1">
                    <mxGeometry x="670" y="102" width="70" height="20" as="geometry"/>
                </mxCell>
                <mxCell id="31" value="pixel_addr" style="text;html=1;strokeColor=none;fillColor=none;align=center;verticalAlign=middle;whiteSpace=wrap;rounded=0;" parent="1" vertex="1">
                    <mxGeometry x="670" y="148" width="70" height="20" as="geometry"/>
                </mxCell>
                <mxCell id="127" style="edgeStyle=none;rounded=0;html=1;exitX=1;exitY=0.5;exitDx=0;exitDy=0;entryX=0;entryY=0.5;entryDx=0;entryDy=0;" parent="1" source="33" target="122" edge="1">
                    <mxGeometry relative="1" as="geometry">
                        <Array as="points">
                            <mxPoint x="1020" y="135"/>
                            <mxPoint x="1020" y="158"/>
                        </Array>
                    </mxGeometry>
                </mxCell>
                <mxCell id="33" value="pixel" style="text;html=1;strokeColor=none;fillColor=none;align=center;verticalAlign=middle;whiteSpace=wrap;rounded=0;" parent="1" vertex="1">
                    <mxGeometry x="960" y="125" width="40" height="20" as="geometry"/>
                </mxCell>
                <mxCell id="116" style="edgeStyle=none;html=1;exitX=1;exitY=0.5;exitDx=0;exitDy=0;" parent="1" source="115" edge="1">
                    <mxGeometry relative="1" as="geometry">
                        <mxPoint x="1316.5" y="134.94029850746267" as="targetPoint"/>
                    </mxGeometry>
                </mxCell>
                <mxCell id="117" style="edgeStyle=none;html=1;exitX=1;exitY=0.25;exitDx=0;exitDy=0;" parent="1" source="115" edge="1">
                    <mxGeometry relative="1" as="geometry">
                        <mxPoint x="1316.5" y="112.55223880597015" as="targetPoint"/>
                    </mxGeometry>
                </mxCell>
                <mxCell id="118" style="edgeStyle=none;html=1;exitX=1;exitY=0.75;exitDx=0;exitDy=0;" parent="1" source="115" edge="1">
                    <mxGeometry relative="1" as="geometry">
                        <mxPoint x="1316.5" y="157.62686567164178" as="targetPoint"/>
                    </mxGeometry>
                </mxCell>
                <mxCell id="119" style="edgeStyle=none;html=1;exitX=0;exitY=0.25;exitDx=0;exitDy=0;entryX=0;entryY=0.25;entryDx=0;entryDy=0;" parent="1" target="115" edge="1">
                    <mxGeometry relative="1" as="geometry">
                        <mxPoint x="1106.5" y="112.40740740740745" as="sourcePoint"/>
                    </mxGeometry>
                </mxCell>
                <mxCell id="120" style="edgeStyle=none;html=1;exitX=0;exitY=0.75;exitDx=0;exitDy=0;entryX=0;entryY=0.75;entryDx=0;entryDy=0;" parent="1" target="115" edge="1">
                    <mxGeometry relative="1" as="geometry">
                        <mxPoint x="1106.5" y="157.5925925925926" as="sourcePoint"/>
                    </mxGeometry>
                </mxCell>
                <mxCell id="115" value="output port" style="rounded=0;whiteSpace=wrap;html=1;" parent="1" vertex="1">
                    <mxGeometry x="1146.5" y="90" width="120" height="90" as="geometry"/>
                </mxCell>
                <mxCell id="121" value="valid" style="text;html=1;strokeColor=none;fillColor=none;align=center;verticalAlign=middle;whiteSpace=wrap;rounded=0;" parent="1" vertex="1">
                    <mxGeometry x="1070" y="102" width="40" height="20" as="geometry"/>
                </mxCell>
                <mxCell id="122" value="pixel" style="text;html=1;strokeColor=none;fillColor=none;align=center;verticalAlign=middle;whiteSpace=wrap;rounded=0;" parent="1" vertex="1">
                    <mxGeometry x="1070" y="148" width="40" height="20" as="geometry"/>
                </mxCell>
                <mxCell id="123" value="vgaRed" style="text;html=1;strokeColor=none;fillColor=none;align=center;verticalAlign=middle;whiteSpace=wrap;rounded=0;" parent="1" vertex="1">
                    <mxGeometry x="1316.5" y="102" width="50" height="20" as="geometry"/>
                </mxCell>
                <mxCell id="124" value="vgaBlue" style="text;html=1;strokeColor=none;fillColor=none;align=center;verticalAlign=middle;whiteSpace=wrap;rounded=0;" parent="1" vertex="1">
                    <mxGeometry x="1316.5" y="148" width="50" height="20" as="geometry"/>
                </mxCell>
                <mxCell id="125" value="vgaGreen" style="text;html=1;strokeColor=none;fillColor=none;align=center;verticalAlign=middle;whiteSpace=wrap;rounded=0;" parent="1" vertex="1">
                    <mxGeometry x="1316.5" y="125" width="60" height="20" as="geometry"/>
                </mxCell>
                <mxCell id="129" value="" style="group" parent="1" vertex="1" connectable="0">
                    <mxGeometry x="260" y="300" width="1409" height="328" as="geometry"/>
                </mxCell>
                <mxCell id="4" style="edgeStyle=none;html=1;exitX=1;exitY=0.5;exitDx=0;exitDy=0;" parent="129" source="2" edge="1">
                    <mxGeometry relative="1" as="geometry">
                        <mxPoint x="221" y="30.01886792452831" as="targetPoint"/>
                    </mxGeometry>
                </mxCell>
                <mxCell id="10" style="edgeStyle=none;html=1;exitX=0;exitY=0.5;exitDx=0;exitDy=0;entryX=0;entryY=0.5;entryDx=0;entryDy=0;" parent="129" target="2" edge="1">
                    <mxGeometry relative="1" as="geometry">
                        <mxPoint x="41" y="30.01886792452831" as="sourcePoint"/>
                    </mxGeometry>
                </mxCell>
                <mxCell id="2" value="clock_divider" style="rounded=0;whiteSpace=wrap;html=1;" parent="129" vertex="1">
                    <mxGeometry x="81" width="100" height="60" as="geometry"/>
                </mxCell>
                <mxCell id="5" value="clk22" style="text;html=1;strokeColor=none;fillColor=none;align=center;verticalAlign=middle;whiteSpace=wrap;rounded=0;" parent="129" vertex="1">
                    <mxGeometry x="221" y="20" width="40" height="20" as="geometry"/>
                </mxCell>
                <mxCell id="8" value="clk" style="text;html=1;strokeColor=none;fillColor=none;align=center;verticalAlign=middle;whiteSpace=wrap;rounded=0;" parent="129" vertex="1">
                    <mxGeometry x="11" y="20" width="30" height="20" as="geometry"/>
                </mxCell>
                <mxCell id="114" value="" style="group" parent="129" vertex="1" connectable="0">
                    <mxGeometry y="80" width="1409" height="248" as="geometry"/>
                </mxCell>
                <mxCell id="92" style="edgeStyle=none;html=1;exitX=0;exitY=0.25;exitDx=0;exitDy=0;entryX=0;entryY=0.25;entryDx=0;entryDy=0;" parent="114" edge="1">
                    <mxGeometry relative="1" as="geometry">
                        <mxPoint x="111" y="62" as="targetPoint"/>
                        <mxPoint x="51" y="62.095238095238074" as="sourcePoint"/>
                    </mxGeometry>
                </mxCell>
                <mxCell id="93" style="edgeStyle=none;html=1;exitX=0;exitY=0.5;exitDx=0;exitDy=0;entryX=0;entryY=0.5;entryDx=0;entryDy=0;" parent="114" target="89" edge="1">
                    <mxGeometry relative="1" as="geometry">
                        <mxPoint x="51" y="137.85714285714278" as="sourcePoint"/>
                    </mxGeometry>
                </mxCell>
                <mxCell id="89" value="" style="rounded=1;whiteSpace=wrap;html=1;dashed=1;" parent="114" vertex="1">
                    <mxGeometry x="111" y="28" width="1079" height="220" as="geometry"/>
                </mxCell>
                <mxCell id="35" style="edgeStyle=none;html=1;exitX=0;exitY=0.25;exitDx=0;exitDy=0;entryX=0;entryY=0.25;entryDx=0;entryDy=0;" parent="114" edge="1">
                    <mxGeometry relative="1" as="geometry">
                        <mxPoint x="251" y="59" as="targetPoint"/>
                        <mxPoint x="190.9999999999999" y="58.927536231884005" as="sourcePoint"/>
                    </mxGeometry>
                </mxCell>
                <mxCell id="36" style="edgeStyle=none;html=1;exitX=0;exitY=0.5;exitDx=0;exitDy=0;entryX=0;entryY=0.5;entryDx=0;entryDy=0;" parent="114" edge="1">
                    <mxGeometry relative="1" as="geometry">
                        <mxPoint x="251" y="91" as="targetPoint"/>
                        <mxPoint x="190.9999999999999" y="91.14492753623188" as="sourcePoint"/>
                    </mxGeometry>
                </mxCell>
                <mxCell id="37" style="edgeStyle=none;html=1;exitX=0;exitY=0.75;exitDx=0;exitDy=0;entryX=0;entryY=0.75;entryDx=0;entryDy=0;" parent="114" edge="1">
                    <mxGeometry relative="1" as="geometry">
                        <mxPoint x="251" y="124" as="targetPoint"/>
                        <mxPoint x="190.9999999999999" y="124.07246376811588" as="sourcePoint"/>
                    </mxGeometry>
                </mxCell>
                <mxCell id="45" style="edgeStyle=none;html=1;exitX=1;exitY=0.25;exitDx=0;exitDy=0;" parent="114" source="34" edge="1">
                    <mxGeometry relative="1" as="geometry">
                        <mxPoint x="441" y="72.91891891891885" as="targetPoint"/>
                    </mxGeometry>
                </mxCell>
                <mxCell id="46" style="edgeStyle=none;html=1;exitX=1;exitY=0.75;exitDx=0;exitDy=0;" parent="114" source="34" edge="1">
                    <mxGeometry relative="1" as="geometry">
                        <mxPoint x="441" y="122.91891891891885" as="targetPoint"/>
                    </mxGeometry>
                </mxCell>
                <mxCell id="34" value="handle next position according to dir" style="rounded=0;whiteSpace=wrap;html=1;" parent="114" vertex="1">
                    <mxGeometry x="251" y="48" width="140" height="100" as="geometry"/>
                </mxCell>
                <mxCell id="38" value="clk22" style="text;html=1;strokeColor=none;fillColor=none;align=center;verticalAlign=middle;whiteSpace=wrap;rounded=0;" parent="114" vertex="1">
                    <mxGeometry x="151" y="48" width="40" height="20" as="geometry"/>
                </mxCell>
                <mxCell id="39" value="position_x" style="text;html=1;strokeColor=none;fillColor=none;align=center;verticalAlign=middle;whiteSpace=wrap;rounded=0;" parent="114" vertex="1">
                    <mxGeometry x="128" y="96" width="60" height="20" as="geometry"/>
                </mxCell>
                <mxCell id="40" value="position_y" style="text;html=1;strokeColor=none;fillColor=none;align=center;verticalAlign=middle;whiteSpace=wrap;rounded=0;" parent="114" vertex="1">
                    <mxGeometry x="128" y="114" width="60" height="20" as="geometry"/>
                </mxCell>
                <mxCell id="41" value="dir" style="text;html=1;strokeColor=none;fillColor=none;align=center;verticalAlign=middle;whiteSpace=wrap;rounded=0;" parent="114" vertex="1">
                    <mxGeometry x="161" y="82" width="30" height="20" as="geometry"/>
                </mxCell>
                <mxCell id="42" value="rst" style="text;html=1;strokeColor=none;fillColor=none;align=center;verticalAlign=middle;whiteSpace=wrap;rounded=0;" parent="114" vertex="1">
                    <mxGeometry x="161" y="65" width="30" height="20" as="geometry"/>
                </mxCell>
                <mxCell id="43" style="edgeStyle=none;html=1;exitX=0;exitY=0.25;exitDx=0;exitDy=0;entryX=0;entryY=0.25;entryDx=0;entryDy=0;" parent="114" edge="1">
                    <mxGeometry relative="1" as="geometry">
                        <mxPoint x="251" y="75.07000000000005" as="targetPoint"/>
                        <mxPoint x="190.9999999999999" y="74.99753623188406" as="sourcePoint"/>
                    </mxGeometry>
                </mxCell>
                <mxCell id="44" style="edgeStyle=none;html=1;exitX=0;exitY=0.25;exitDx=0;exitDy=0;entryX=0;entryY=0.25;entryDx=0;entryDy=0;" parent="114" edge="1">
                    <mxGeometry relative="1" as="geometry">
                        <mxPoint x="251" y="107.07000000000005" as="targetPoint"/>
                        <mxPoint x="190.9999999999999" y="106.99753623188406" as="sourcePoint"/>
                    </mxGeometry>
                </mxCell>
                <mxCell id="47" value="position_x" style="text;html=1;strokeColor=none;fillColor=none;align=center;verticalAlign=middle;whiteSpace=wrap;rounded=0;" parent="114" vertex="1">
                    <mxGeometry x="443" y="62" width="60" height="20" as="geometry"/>
                </mxCell>
                <mxCell id="48" value="position_y" style="text;html=1;strokeColor=none;fillColor=none;align=center;verticalAlign=middle;whiteSpace=wrap;rounded=0;" parent="114" vertex="1">
                    <mxGeometry x="443" y="113" width="60" height="20" as="geometry"/>
                </mxCell>
                <mxCell id="50" style="edgeStyle=none;html=1;exitX=0;exitY=0.5;exitDx=0;exitDy=0;entryX=0;entryY=0.5;entryDx=0;entryDy=0;" parent="114" target="49" edge="1">
                    <mxGeometry relative="1" as="geometry">
                        <mxPoint x="241" y="197.89473684210532" as="sourcePoint"/>
                    </mxGeometry>
                </mxCell>
                <mxCell id="52" style="edgeStyle=none;html=1;exitX=1;exitY=0.5;exitDx=0;exitDy=0;" parent="114" source="49" edge="1">
                    <mxGeometry relative="1" as="geometry">
                        <mxPoint x="441" y="197.89473684210532" as="targetPoint"/>
                    </mxGeometry>
                </mxCell>
                <mxCell id="49" value="handle enlarge" style="rounded=0;whiteSpace=wrap;html=1;" parent="114" vertex="1">
                    <mxGeometry x="291" y="168" width="100" height="60" as="geometry"/>
                </mxCell>
                <mxCell id="51" value="enlarge" style="text;html=1;strokeColor=none;fillColor=none;align=center;verticalAlign=middle;whiteSpace=wrap;rounded=0;" parent="114" vertex="1">
                    <mxGeometry x="191" y="188" width="50" height="20" as="geometry"/>
                </mxCell>
                <mxCell id="53" value="magnify" style="text;html=1;strokeColor=none;fillColor=none;align=center;verticalAlign=middle;whiteSpace=wrap;rounded=0;" parent="114" vertex="1">
                    <mxGeometry x="441" y="188" width="50" height="20" as="geometry"/>
                </mxCell>
                <mxCell id="55" style="edgeStyle=none;html=1;entryX=0;entryY=0.5;entryDx=0;entryDy=0;" parent="114" target="54" edge="1">
                    <mxGeometry relative="1" as="geometry">
                        <mxPoint x="628" y="131" as="sourcePoint"/>
                    </mxGeometry>
                </mxCell>
                <mxCell id="56" style="edgeStyle=none;html=1;entryX=0;entryY=0.25;entryDx=0;entryDy=0;" parent="114" edge="1">
                    <mxGeometry relative="1" as="geometry">
                        <mxPoint x="678" y="90.75" as="targetPoint"/>
                        <mxPoint x="628" y="91" as="sourcePoint"/>
                    </mxGeometry>
                </mxCell>
                <mxCell id="73" style="edgeStyle=none;html=1;exitX=1;exitY=0.25;exitDx=0;exitDy=0;" parent="114" source="54" edge="1">
                    <mxGeometry relative="1" as="geometry">
                        <mxPoint x="848" y="91.81818181818187" as="targetPoint"/>
                    </mxGeometry>
                </mxCell>
                <mxCell id="74" style="edgeStyle=none;html=1;exitX=1;exitY=0.75;exitDx=0;exitDy=0;" parent="114" source="54" edge="1">
                    <mxGeometry relative="1" as="geometry">
                        <mxPoint x="848" y="169.27272727272725" as="targetPoint"/>
                    </mxGeometry>
                </mxCell>
                <mxCell id="54" value="handle mirror" style="rounded=0;whiteSpace=wrap;html=1;" parent="114" vertex="1">
                    <mxGeometry x="678" y="53" width="120" height="155" as="geometry"/>
                </mxCell>
                <mxCell id="58" value="hmir" style="text;html=1;strokeColor=none;fillColor=none;align=center;verticalAlign=middle;whiteSpace=wrap;rounded=0;" parent="114" vertex="1">
                    <mxGeometry x="588" y="60" width="40" height="20" as="geometry"/>
                </mxCell>
                <mxCell id="59" value="vmir" style="text;html=1;strokeColor=none;fillColor=none;align=center;verticalAlign=middle;whiteSpace=wrap;rounded=0;" parent="114" vertex="1">
                    <mxGeometry x="588" y="81" width="40" height="20" as="geometry"/>
                </mxCell>
                <mxCell id="60" value="v_cnt" style="text;html=1;strokeColor=none;fillColor=none;align=center;verticalAlign=middle;whiteSpace=wrap;rounded=0;" parent="114" vertex="1">
                    <mxGeometry x="586" y="101" width="40" height="20" as="geometry"/>
                </mxCell>
                <mxCell id="61" value="h_cnt" style="text;html=1;strokeColor=none;fillColor=none;align=center;verticalAlign=middle;whiteSpace=wrap;rounded=0;" parent="114" vertex="1">
                    <mxGeometry x="586" y="122" width="40" height="20" as="geometry"/>
                </mxCell>
                <mxCell id="62" value="magnify" style="text;html=1;strokeColor=none;fillColor=none;align=center;verticalAlign=middle;whiteSpace=wrap;rounded=0;" parent="114" vertex="1">
                    <mxGeometry x="580" y="141" width="48" height="20" as="geometry"/>
                </mxCell>
                <mxCell id="63" value="out_x" style="text;html=1;strokeColor=none;fillColor=none;align=center;verticalAlign=middle;whiteSpace=wrap;rounded=0;" parent="114" vertex="1">
                    <mxGeometry x="848" y="83" width="48" height="20" as="geometry"/>
                </mxCell>
                <mxCell id="64" value="out_y" style="text;html=1;strokeColor=none;fillColor=none;align=center;verticalAlign=middle;whiteSpace=wrap;rounded=0;" parent="114" vertex="1">
                    <mxGeometry x="848" y="157" width="48" height="20" as="geometry"/>
                </mxCell>
                <mxCell id="65" value="position_x" style="text;html=1;strokeColor=none;fillColor=none;align=center;verticalAlign=middle;whiteSpace=wrap;rounded=0;" parent="114" vertex="1">
                    <mxGeometry x="568" y="162" width="60" height="20" as="geometry"/>
                </mxCell>
                <mxCell id="66" value="position_y" style="text;html=1;strokeColor=none;fillColor=none;align=center;verticalAlign=middle;whiteSpace=wrap;rounded=0;" parent="114" vertex="1">
                    <mxGeometry x="568" y="183" width="60" height="20" as="geometry"/>
                </mxCell>
                <mxCell id="67" style="edgeStyle=none;html=1;entryX=0;entryY=0.25;entryDx=0;entryDy=0;" parent="114" edge="1">
                    <mxGeometry relative="1" as="geometry">
                        <mxPoint x="678" y="69" as="targetPoint"/>
                        <mxPoint x="628" y="69.25" as="sourcePoint"/>
                    </mxGeometry>
                </mxCell>
                <mxCell id="68" style="edgeStyle=none;html=1;entryX=0;entryY=0.25;entryDx=0;entryDy=0;" parent="114" edge="1">
                    <mxGeometry relative="1" as="geometry">
                        <mxPoint x="678" y="111" as="targetPoint"/>
                        <mxPoint x="628" y="111.25" as="sourcePoint"/>
                    </mxGeometry>
                </mxCell>
                <mxCell id="69" style="edgeStyle=none;html=1;entryX=0;entryY=0.25;entryDx=0;entryDy=0;" parent="114" edge="1">
                    <mxGeometry relative="1" as="geometry">
                        <mxPoint x="678" y="172.25" as="targetPoint"/>
                        <mxPoint x="628" y="172.5" as="sourcePoint"/>
                    </mxGeometry>
                </mxCell>
                <mxCell id="70" style="edgeStyle=none;html=1;entryX=0;entryY=0.25;entryDx=0;entryDy=0;" parent="114" edge="1">
                    <mxGeometry relative="1" as="geometry">
                        <mxPoint x="678" y="150.5" as="targetPoint"/>
                        <mxPoint x="628" y="150.75" as="sourcePoint"/>
                    </mxGeometry>
                </mxCell>
                <mxCell id="71" style="edgeStyle=none;html=1;entryX=0;entryY=0.25;entryDx=0;entryDy=0;" parent="114" edge="1">
                    <mxGeometry relative="1" as="geometry">
                        <mxPoint x="678" y="192.5" as="targetPoint"/>
                        <mxPoint x="628" y="192.75" as="sourcePoint"/>
                    </mxGeometry>
                </mxCell>
                <mxCell id="76" style="edgeStyle=none;html=1;exitX=0;exitY=0.25;exitDx=0;exitDy=0;entryX=0;entryY=0.25;entryDx=0;entryDy=0;" parent="114" edge="1">
                    <mxGeometry relative="1" as="geometry">
                        <mxPoint x="1046" y="140.85000000000002" as="targetPoint"/>
                        <mxPoint x="996" y="140.80098039215693" as="sourcePoint"/>
                    </mxGeometry>
                </mxCell>
                <mxCell id="77" style="edgeStyle=none;html=1;exitX=0;exitY=0.5;exitDx=0;exitDy=0;entryX=0;entryY=0.5;entryDx=0;entryDy=0;" parent="114" edge="1">
                    <mxGeometry relative="1" as="geometry">
                        <mxPoint x="1046" y="101" as="targetPoint"/>
                        <mxPoint x="996" y="101.1960784313726" as="sourcePoint"/>
                    </mxGeometry>
                </mxCell>
                <mxCell id="78" style="edgeStyle=none;html=1;exitX=0;exitY=0.75;exitDx=0;exitDy=0;entryX=0;entryY=0.75;entryDx=0;entryDy=0;" parent="114" edge="1">
                    <mxGeometry relative="1" as="geometry">
                        <mxPoint x="1046" y="181" as="targetPoint"/>
                        <mxPoint x="996" y="181.04901960784332" as="sourcePoint"/>
                    </mxGeometry>
                </mxCell>
                <mxCell id="87" style="edgeStyle=none;html=1;exitX=1;exitY=0.5;exitDx=0;exitDy=0;entryX=-0.023;entryY=0.532;entryDx=0;entryDy=0;entryPerimeter=0;" parent="114" source="75" target="88" edge="1">
                    <mxGeometry relative="1" as="geometry">
                        <mxPoint x="1341" y="141" as="targetPoint"/>
                    </mxGeometry>
                </mxCell>
                <mxCell id="75" value="output&amp;nbsp; pixel addr" style="rounded=0;whiteSpace=wrap;html=1;" parent="114" vertex="1">
                    <mxGeometry x="1046" y="81" width="120" height="120" as="geometry"/>
                </mxCell>
                <mxCell id="79" value="enlarge" style="text;html=1;strokeColor=none;fillColor=none;align=center;verticalAlign=middle;whiteSpace=wrap;rounded=0;" parent="114" vertex="1">
                    <mxGeometry x="947" y="131" width="50" height="20" as="geometry"/>
                </mxCell>
                <mxCell id="80" value="out_x" style="text;html=1;strokeColor=none;fillColor=none;align=center;verticalAlign=middle;whiteSpace=wrap;rounded=0;" parent="114" vertex="1">
                    <mxGeometry x="952" y="91" width="48" height="20" as="geometry"/>
                </mxCell>
                <mxCell id="81" value="out_y" style="text;html=1;strokeColor=none;fillColor=none;align=center;verticalAlign=middle;whiteSpace=wrap;rounded=0;" parent="114" vertex="1">
                    <mxGeometry x="952" y="111" width="48" height="20" as="geometry"/>
                </mxCell>
                <mxCell id="82" value="v_center" style="text;html=1;strokeColor=none;fillColor=none;align=center;verticalAlign=middle;whiteSpace=wrap;rounded=0;" parent="114" vertex="1">
                    <mxGeometry x="938" y="150" width="60" height="20" as="geometry"/>
                </mxCell>
                <mxCell id="83" value="h_center" style="text;html=1;strokeColor=none;fillColor=none;align=center;verticalAlign=middle;whiteSpace=wrap;rounded=0;" parent="114" vertex="1">
                    <mxGeometry x="938" y="171" width="60" height="20" as="geometry"/>
                </mxCell>
                <mxCell id="84" style="edgeStyle=none;html=1;exitX=0;exitY=0.5;exitDx=0;exitDy=0;entryX=0;entryY=0.5;entryDx=0;entryDy=0;" parent="114" edge="1">
                    <mxGeometry relative="1" as="geometry">
                        <mxPoint x="1046" y="121.00000000000011" as="targetPoint"/>
                        <mxPoint x="996" y="121.1960784313726" as="sourcePoint"/>
                    </mxGeometry>
                </mxCell>
                <mxCell id="85" style="edgeStyle=none;html=1;exitX=0;exitY=0.5;exitDx=0;exitDy=0;entryX=0;entryY=0.5;entryDx=0;entryDy=0;" parent="114" edge="1">
                    <mxGeometry relative="1" as="geometry">
                        <mxPoint x="1046" y="161.0000000000001" as="targetPoint"/>
                        <mxPoint x="996" y="161.1960784313726" as="sourcePoint"/>
                    </mxGeometry>
                </mxCell>
                <mxCell id="88" value="pixel_addr" style="text;html=1;strokeColor=none;fillColor=none;align=center;verticalAlign=middle;whiteSpace=wrap;rounded=0;" parent="114" vertex="1">
                    <mxGeometry x="1237" y="130" width="71" height="20" as="geometry"/>
                </mxCell>
                <mxCell id="90" value="mem_addr_gen" style="text;html=1;strokeColor=none;fillColor=none;align=center;verticalAlign=middle;whiteSpace=wrap;rounded=0;dashed=1;" parent="114" vertex="1">
                    <mxGeometry x="134" width="107" height="30" as="geometry"/>
                </mxCell>
                <mxCell id="95" style="edgeStyle=none;html=1;exitX=0;exitY=0.25;exitDx=0;exitDy=0;entryX=0;entryY=0.25;entryDx=0;entryDy=0;" parent="114" edge="1">
                    <mxGeometry relative="1" as="geometry">
                        <mxPoint x="111" y="118.75999999999999" as="targetPoint"/>
                        <mxPoint x="51" y="118.85523809523806" as="sourcePoint"/>
                    </mxGeometry>
                </mxCell>
                <mxCell id="96" style="edgeStyle=none;html=1;exitX=0;exitY=0.25;exitDx=0;exitDy=0;entryX=0;entryY=0.25;entryDx=0;entryDy=0;" parent="114" edge="1">
                    <mxGeometry relative="1" as="geometry">
                        <mxPoint x="111" y="99.75999999999999" as="targetPoint"/>
                        <mxPoint x="51" y="99.85523809523806" as="sourcePoint"/>
                    </mxGeometry>
                </mxCell>
                <mxCell id="97" style="edgeStyle=none;html=1;exitX=0;exitY=0.25;exitDx=0;exitDy=0;entryX=0;entryY=0.25;entryDx=0;entryDy=0;" parent="114" edge="1">
                    <mxGeometry relative="1" as="geometry">
                        <mxPoint x="111" y="81" as="targetPoint"/>
                        <mxPoint x="51" y="81.09523809523807" as="sourcePoint"/>
                    </mxGeometry>
                </mxCell>
                <mxCell id="98" style="edgeStyle=none;html=1;exitX=0;exitY=0.25;exitDx=0;exitDy=0;entryX=0;entryY=0.25;entryDx=0;entryDy=0;" parent="114" edge="1">
                    <mxGeometry relative="1" as="geometry">
                        <mxPoint x="111" y="157" as="targetPoint"/>
                        <mxPoint x="51" y="157.09523809523807" as="sourcePoint"/>
                    </mxGeometry>
                </mxCell>
                <mxCell id="99" style="edgeStyle=none;html=1;exitX=0;exitY=0.25;exitDx=0;exitDy=0;entryX=0;entryY=0.25;entryDx=0;entryDy=0;" parent="114" edge="1">
                    <mxGeometry relative="1" as="geometry">
                        <mxPoint x="111" y="213.76" as="targetPoint"/>
                        <mxPoint x="51" y="213.85523809523806" as="sourcePoint"/>
                    </mxGeometry>
                </mxCell>
                <mxCell id="100" style="edgeStyle=none;html=1;exitX=0;exitY=0.25;exitDx=0;exitDy=0;entryX=0;entryY=0.25;entryDx=0;entryDy=0;" parent="114" edge="1">
                    <mxGeometry relative="1" as="geometry">
                        <mxPoint x="111" y="194.76" as="targetPoint"/>
                        <mxPoint x="51" y="194.85523809523818" as="sourcePoint"/>
                    </mxGeometry>
                </mxCell>
                <mxCell id="101" style="edgeStyle=none;html=1;exitX=0;exitY=0.25;exitDx=0;exitDy=0;entryX=0;entryY=0.25;entryDx=0;entryDy=0;" parent="114" edge="1">
                    <mxGeometry relative="1" as="geometry">
                        <mxPoint x="111" y="176" as="targetPoint"/>
                        <mxPoint x="51" y="176.09523809523807" as="sourcePoint"/>
                    </mxGeometry>
                </mxCell>
                <mxCell id="102" value="clk22" style="text;html=1;strokeColor=none;fillColor=none;align=center;verticalAlign=middle;whiteSpace=wrap;rounded=0;" parent="114" vertex="1">
                    <mxGeometry x="11" y="52" width="40" height="20" as="geometry"/>
                </mxCell>
                <mxCell id="103" value="rst" style="text;html=1;strokeColor=none;fillColor=none;align=center;verticalAlign=middle;whiteSpace=wrap;rounded=0;" parent="114" vertex="1">
                    <mxGeometry x="21" y="70" width="30" height="22" as="geometry"/>
                </mxCell>
                <mxCell id="104" value="en" style="text;html=1;strokeColor=none;fillColor=none;align=center;verticalAlign=middle;whiteSpace=wrap;rounded=0;" parent="114" vertex="1">
                    <mxGeometry x="171" y="131" width="20" height="20" as="geometry"/>
                </mxCell>
                <mxCell id="105" style="edgeStyle=none;html=1;exitX=0;exitY=0.25;exitDx=0;exitDy=0;entryX=0;entryY=0.25;entryDx=0;entryDy=0;" parent="114" edge="1">
                    <mxGeometry relative="1" as="geometry">
                        <mxPoint x="251" y="141.07000000000005" as="targetPoint"/>
                        <mxPoint x="190.9999999999999" y="140.99753623188406" as="sourcePoint"/>
                    </mxGeometry>
                </mxCell>
                <mxCell id="106" value="en" style="text;html=1;strokeColor=none;fillColor=none;align=center;verticalAlign=middle;whiteSpace=wrap;rounded=0;" parent="114" vertex="1">
                    <mxGeometry x="26" y="89" width="20" height="20" as="geometry"/>
                </mxCell>
                <mxCell id="107" value="dir" style="text;html=1;strokeColor=none;fillColor=none;align=center;verticalAlign=middle;whiteSpace=wrap;rounded=0;" parent="114" vertex="1">
                    <mxGeometry x="21" y="109" width="30" height="20" as="geometry"/>
                </mxCell>
                <mxCell id="108" value="hmir" style="text;html=1;strokeColor=none;fillColor=none;align=center;verticalAlign=middle;whiteSpace=wrap;rounded=0;" parent="114" vertex="1">
                    <mxGeometry x="11" y="127" width="40" height="20" as="geometry"/>
                </mxCell>
                <mxCell id="109" value="vmir" style="text;html=1;strokeColor=none;fillColor=none;align=center;verticalAlign=middle;whiteSpace=wrap;rounded=0;" parent="114" vertex="1">
                    <mxGeometry x="11" y="148" width="40" height="20" as="geometry"/>
                </mxCell>
                <mxCell id="110" value="enlarge" style="text;html=1;strokeColor=none;fillColor=none;align=center;verticalAlign=middle;whiteSpace=wrap;rounded=0;" parent="114" vertex="1">
                    <mxGeometry y="165" width="50" height="20" as="geometry"/>
                </mxCell>
                <mxCell id="111" value="v_cnt" style="text;html=1;strokeColor=none;fillColor=none;align=center;verticalAlign=middle;whiteSpace=wrap;rounded=0;" parent="114" vertex="1">
                    <mxGeometry x="10" y="185" width="40" height="20" as="geometry"/>
                </mxCell>
                <mxCell id="112" value="h_cnt" style="text;html=1;strokeColor=none;fillColor=none;align=center;verticalAlign=middle;whiteSpace=wrap;rounded=0;" parent="114" vertex="1">
                    <mxGeometry x="10" y="206" width="40" height="20" as="geometry"/>
                </mxCell>
                <mxCell id="155" style="edgeStyle=none;rounded=0;html=1;exitX=1;exitY=0.75;exitDx=0;exitDy=0;" parent="114" edge="1">
                    <mxGeometry relative="1" as="geometry">
                        <mxPoint x="1420" y="55.82121212121211" as="targetPoint"/>
                        <mxPoint x="1320" y="55.69999999999999" as="sourcePoint"/>
                    </mxGeometry>
                </mxCell>
                <mxCell id="126" style="edgeStyle=none;html=1;exitX=1;exitY=0.5;exitDx=0;exitDy=0;entryX=0.176;entryY=-0.001;entryDx=0;entryDy=0;entryPerimeter=0;rounded=0;" parent="129" source="5" target="89" edge="1">
                    <mxGeometry relative="1" as="geometry">
                        <Array as="points">
                            <mxPoint x="300" y="30"/>
                        </Array>
                    </mxGeometry>
                </mxCell>
                <mxCell id="140" style="edgeStyle=none;rounded=0;html=1;exitX=0;exitY=0.25;exitDx=0;exitDy=0;entryX=0;entryY=0.25;entryDx=0;entryDy=0;" parent="1" edge="1">
                    <mxGeometry relative="1" as="geometry">
                        <mxPoint x="250" y="313" as="targetPoint"/>
                        <mxPoint x="170" y="313.14634146341473" as="sourcePoint"/>
                    </mxGeometry>
                </mxCell>
                <mxCell id="141" style="edgeStyle=none;rounded=0;html=1;exitX=0;exitY=0.25;exitDx=0;exitDy=0;entryX=0;entryY=0.25;entryDx=0;entryDy=0;" parent="1" edge="1">
                    <mxGeometry relative="1" as="geometry">
                        <mxPoint x="250" y="262" as="targetPoint"/>
                        <mxPoint x="170" y="262.14634146341473" as="sourcePoint"/>
                    </mxGeometry>
                </mxCell>
                <mxCell id="142" style="edgeStyle=none;rounded=0;html=1;exitX=0;exitY=0.25;exitDx=0;exitDy=0;entryX=0;entryY=0.25;entryDx=0;entryDy=0;" parent="1" edge="1">
                    <mxGeometry relative="1" as="geometry">
                        <mxPoint x="250" y="461.0000000000001" as="targetPoint"/>
                        <mxPoint x="170" y="461.14634146341473" as="sourcePoint"/>
                    </mxGeometry>
                </mxCell>
                <mxCell id="143" style="edgeStyle=none;rounded=0;html=1;exitX=0;exitY=0.25;exitDx=0;exitDy=0;entryX=0;entryY=0.25;entryDx=0;entryDy=0;" parent="1" edge="1">
                    <mxGeometry relative="1" as="geometry">
                        <mxPoint x="250" y="410" as="targetPoint"/>
                        <mxPoint x="170" y="410.1463414634146" as="sourcePoint"/>
                    </mxGeometry>
                </mxCell>
                <mxCell id="144" value="clk" style="text;html=1;strokeColor=none;fillColor=none;align=center;verticalAlign=middle;whiteSpace=wrap;rounded=0;" parent="1" vertex="1">
                    <mxGeometry x="140" y="200" width="30" height="20" as="geometry"/>
                </mxCell>
                <mxCell id="145" value="rst" style="text;html=1;strokeColor=none;fillColor=none;align=center;verticalAlign=middle;whiteSpace=wrap;rounded=0;" parent="1" vertex="1">
                    <mxGeometry x="140" y="252" width="30" height="22" as="geometry"/>
                </mxCell>
                <mxCell id="146" value="en" style="text;html=1;strokeColor=none;fillColor=none;align=center;verticalAlign=middle;whiteSpace=wrap;rounded=0;" parent="1" vertex="1">
                    <mxGeometry x="145" y="303" width="20" height="20" as="geometry"/>
                </mxCell>
                <mxCell id="147" value="dir" style="text;html=1;strokeColor=none;fillColor=none;align=center;verticalAlign=middle;whiteSpace=wrap;rounded=0;" parent="1" vertex="1">
                    <mxGeometry x="140" y="350" width="30" height="20" as="geometry"/>
                </mxCell>
                <mxCell id="148" value="hmir" style="text;html=1;strokeColor=none;fillColor=none;align=center;verticalAlign=middle;whiteSpace=wrap;rounded=0;" parent="1" vertex="1">
                    <mxGeometry x="132" y="400" width="40" height="20" as="geometry"/>
                </mxCell>
                <mxCell id="149" value="vmir" style="text;html=1;strokeColor=none;fillColor=none;align=center;verticalAlign=middle;whiteSpace=wrap;rounded=0;" parent="1" vertex="1">
                    <mxGeometry x="132" y="450" width="40" height="20" as="geometry"/>
                </mxCell>
                <mxCell id="150" value="enlarge" style="text;html=1;strokeColor=none;fillColor=none;align=center;verticalAlign=middle;whiteSpace=wrap;rounded=0;" parent="1" vertex="1">
                    <mxGeometry x="120" y="500" width="50" height="20" as="geometry"/>
                </mxCell>
                <mxCell id="156" style="edgeStyle=none;rounded=0;html=1;exitX=1;exitY=0.25;exitDx=0;exitDy=0;" parent="1" edge="1">
                    <mxGeometry relative="1" as="geometry">
                        <mxPoint x="1680" y="285.1212121212121" as="targetPoint"/>
                        <mxPoint x="1580" y="284.9999999999999" as="sourcePoint"/>
                    </mxGeometry>
                </mxCell>
                <mxCell id="157" value="vgaRed" style="text;html=1;strokeColor=none;fillColor=none;align=center;verticalAlign=middle;whiteSpace=wrap;rounded=0;" parent="1" vertex="1">
                    <mxGeometry x="1680" y="200" width="50" height="20" as="geometry"/>
                </mxCell>
                <mxCell id="158" value="vgaBlue" style="text;html=1;strokeColor=none;fillColor=none;align=center;verticalAlign=middle;whiteSpace=wrap;rounded=0;" parent="1" vertex="1">
                    <mxGeometry x="1680" y="350" width="50" height="20" as="geometry"/>
                </mxCell>
                <mxCell id="159" value="vgaGreen" style="text;html=1;strokeColor=none;fillColor=none;align=center;verticalAlign=middle;whiteSpace=wrap;rounded=0;" parent="1" vertex="1">
                    <mxGeometry x="1680" y="274" width="60" height="20" as="geometry"/>
                </mxCell>
                <mxCell id="161" value="hsync" style="text;html=1;strokeColor=none;fillColor=none;align=center;verticalAlign=middle;whiteSpace=wrap;rounded=0;" parent="1" vertex="1">
                    <mxGeometry x="1675" y="425" width="50" height="20" as="geometry"/>
                </mxCell>
                <mxCell id="162" value="vsync" style="text;html=1;strokeColor=none;fillColor=none;align=center;verticalAlign=middle;whiteSpace=wrap;rounded=0;" parent="1" vertex="1">
                    <mxGeometry x="1677" y="500" width="50" height="20" as="geometry"/>
                </mxCell>
            </root>
        </mxGraphModel>
    </diagram>
</mxfile>